# This file uses centimeters as units for non-parametric coordinates.

mtllib BackLeftBurner.mtl
g default
v 205.438980 104.159897 -38.890869
v 203.388733 104.159897 -43.840622
v 198.438980 104.159897 -45.890869
v 193.489227 104.159897 -43.840622
v 191.438980 104.159897 -38.890869
v 193.489227 104.159897 -33.941124
v 198.438980 104.159897 -31.890871
v 203.388733 104.159897 -33.941124
v 205.438980 107.039894 -38.890869
v 203.388733 107.039894 -43.840622
v 198.438980 107.039894 -45.890869
v 193.489227 107.039894 -43.840622
v 191.438980 107.039894 -38.890869
v 193.489227 107.039894 -33.941124
v 198.438980 107.039894 -31.890871
v 203.388733 107.039894 -33.941124
v 198.438980 107.039894 -38.890873
v 202.657578 105.599899 -43.109474
v 198.224472 105.599899 -45.071384
v 193.917023 105.599899 -43.412834
v 192.258469 105.599899 -39.105385
v 194.220383 105.599899 -34.672276
v 198.653488 105.599899 -32.710365
v 202.960938 105.599899 -34.368916
v 204.619492 105.599899 -38.676369
v 203.893173 106.477348 -44.345070
v 198.161652 106.477348 -46.881611
v 192.592575 106.477348 -44.737286
v 190.448242 106.477348 -39.168213
v 192.984787 106.477348 -33.436676
v 198.716324 106.477348 -30.900139
v 204.285385 106.477348 -33.044464
v 206.429718 106.477348 -38.613541
v 206.876175 106.840782 -47.328072
v 198.009964 106.840782 -51.251888
v 189.395065 106.840782 -47.934792
v 186.077972 106.840782 -39.319893
v 190.001785 106.840782 -30.453678
v 198.867996 106.840782 -26.529861
v 207.482895 106.840782 -29.846954
v 210.800003 106.840782 -38.461861
v 209.859177 106.477348 -50.311069
v 197.858292 106.477348 -55.622169
v 186.197556 106.477348 -51.132301
v 181.707687 106.477348 -39.471573
v 187.018784 106.477348 -27.470680
v 199.019684 106.477348 -22.159584
v 210.680405 106.477348 -26.649448
v 215.170273 106.477348 -38.310177
v 211.094772 105.599899 -51.546669
v 197.795456 105.599899 -57.432396
v 184.873108 105.599899 -52.456753
v 179.897461 105.599899 -39.534397
v 185.783188 105.599899 -26.235079
v 199.082504 105.599899 -20.349354
v 212.004852 105.599899 -25.324997
v 216.980499 105.599899 -38.247349
vt 0.746209 0.012665
vt 0.779601 0.012665
vt 0.779601 0.146232
vt 0.746209 0.146232
vt 0.512466 0.012665
vt 0.545858 0.012665
vt 0.545858 0.146232
vt 0.512466 0.146232
vt 0.579249 0.012665
vt 0.579249 0.146232
vt 0.612642 0.012665
vt 0.612642 0.146232
vt 0.646033 0.012665
vt 0.646033 0.146232
vt 0.679425 0.012665
vt 0.679425 0.146232
vt 0.712817 0.012665
vt 0.712817 0.146232
vt 0.966253 0.169010
vt 0.905577 0.194143
vt 0.905577 0.108333
vt 0.844901 0.169010
vt 0.819768 0.108333
vt 0.844901 0.047657
vt 0.905577 0.022524
vt 0.966253 0.047657
vt 0.991386 0.108333
vt 0.650540 0.865903
vt 0.687612 0.881259
vt 0.687612 0.896615
vt 0.639682 0.876761
vt 0.635184 0.828831
vt 0.619828 0.828831
vt 0.650540 0.791759
vt 0.639682 0.780901
vt 0.687612 0.776403
vt 0.687612 0.761047
vt 0.724685 0.791759
vt 0.735543 0.780901
vt 0.740040 0.828831
vt 0.755396 0.828831
vt 0.724685 0.865903
vt 0.735543 0.876761
vt 0.687612 0.933687
vt 0.613468 0.902975
vt 0.582756 0.828831
vt 0.613468 0.754687
vt 0.687612 0.723975
vt 0.761757 0.754687
vt 0.792468 0.828831
vt 0.761757 0.902975
vt 0.687612 0.970759
vt 0.587254 0.929189
vt 0.545684 0.828831
vt 0.587254 0.728473
vt 0.687612 0.686903
vt 0.787971 0.728473
vt 0.829540 0.828831
vt 0.787971 0.929189
vt 0.687612 0.986115
vt 0.576396 0.940048
vt 0.530328 0.828831
vt 0.576396 0.717614
vt 0.687612 0.671547
vt 0.798829 0.717614
vt 0.844896 0.828831
vt 0.798829 0.940048
vn 0.923880 0.000000 -0.382682
vn 0.923880 0.000000 -0.382682
vn 0.923880 0.000000 -0.382682
vn 0.923880 0.000000 -0.382682
vn 0.382681 0.000000 -0.923881
vn 0.382681 0.000000 -0.923881
vn 0.382681 0.000000 -0.923881
vn 0.382681 0.000000 -0.923881
vn -0.382681 0.000000 -0.923881
vn -0.382681 0.000000 -0.923881
vn -0.382681 0.000000 -0.923881
vn -0.382681 0.000000 -0.923881
vn -0.923880 0.000000 -0.382682
vn -0.923880 0.000000 -0.382682
vn -0.923880 0.000000 -0.382682
vn -0.923880 0.000000 -0.382682
vn -0.923880 0.000000 0.382682
vn -0.923880 0.000000 0.382682
vn -0.923880 0.000000 0.382682
vn -0.923880 0.000000 0.382682
vn -0.382682 0.000000 0.923880
vn -0.382682 0.000000 0.923880
vn -0.382682 0.000000 0.923880
vn -0.382682 0.000000 0.923880
vn 0.382682 0.000000 0.923880
vn 0.382682 0.000000 0.923880
vn 0.382682 0.000000 0.923880
vn 0.382682 0.000000 0.923880
vn 0.923880 0.000000 0.382682
vn 0.923880 0.000000 0.382682
vn 0.923880 0.000000 0.382682
vn 0.923880 0.000000 0.382682
vn 0.000000 1.000000 -0.000000
vn 0.000000 1.000000 0.000002
vn 0.000000 1.000000 0.000000
vn 0.000000 1.000000 0.000000
vn 0.000000 1.000000 0.000002
vn 0.000000 1.000000 -0.000000
vn 0.000000 1.000000 -0.000002
vn 0.000000 1.000000 0.000000
vn 0.000000 1.000000 -0.000002
vn -0.191832 0.880519 0.433459
vn -0.191832 0.880519 0.433459
vn -0.191832 0.880519 0.433459
vn -0.191832 0.880519 0.433459
vn 0.163900 0.889911 0.425670
vn 0.163900 0.889911 0.425670
vn 0.163900 0.889911 0.425670
vn 0.163900 0.889911 0.425670
vn 0.425673 0.889909 0.163902
vn 0.425673 0.889909 0.163902
vn 0.425673 0.889909 0.163902
vn 0.425673 0.889909 0.163902
vn 0.433464 0.880516 -0.191834
vn 0.433464 0.880516 -0.191834
vn 0.433464 0.880516 -0.191834
vn 0.433464 0.880516 -0.191834
vn 0.191831 0.880518 -0.433462
vn 0.191831 0.880518 -0.433462
vn 0.191831 0.880518 -0.433462
vn 0.191831 0.880518 -0.433462
vn -0.163899 0.889912 -0.425669
vn -0.163899 0.889912 -0.425669
vn -0.163899 0.889912 -0.425669
vn -0.163899 0.889912 -0.425669
vn -0.425673 0.889910 -0.163901
vn -0.425673 0.889910 -0.163901
vn -0.425673 0.889910 -0.163901
vn -0.425673 0.889910 -0.163901
vn -0.433462 0.880517 0.191833
vn -0.433462 0.880517 0.191833
vn -0.433462 0.880517 0.191833
vn -0.433462 0.880517 0.191833
vn -0.037219 0.995762 0.084099
vn -0.037219 0.995762 0.084099
vn -0.037219 0.995762 0.084099
vn -0.037219 0.995762 0.084099
vn 0.031477 0.996156 0.081746
vn 0.031477 0.996156 0.081746
vn 0.031477 0.996156 0.081746
vn 0.031477 0.996156 0.081746
vn 0.081748 0.996156 0.031476
vn 0.081748 0.996156 0.031476
vn 0.081748 0.996156 0.031476
vn 0.081748 0.996156 0.031476
vn 0.084100 0.995762 -0.037220
vn 0.084100 0.995762 -0.037220
vn 0.084100 0.995762 -0.037220
vn 0.084100 0.995762 -0.037220
vn 0.037219 0.995762 -0.084098
vn 0.037219 0.995762 -0.084098
vn 0.037219 0.995762 -0.084098
vn 0.037219 0.995762 -0.084098
vn -0.031476 0.996156 -0.081748
vn -0.031476 0.996156 -0.081748
vn -0.031476 0.996156 -0.081748
vn -0.031476 0.996156 -0.081748
vn -0.081748 0.996156 -0.031476
vn -0.081748 0.996156 -0.031476
vn -0.081748 0.996156 -0.031476
vn -0.081748 0.996156 -0.031476
vn -0.084100 0.995762 0.037219
vn -0.084100 0.995762 0.037219
vn -0.084100 0.995762 0.037219
vn -0.084100 0.995762 0.037219
vn 0.037219 0.995762 -0.084098
vn 0.037219 0.995762 -0.084098
vn 0.037219 0.995762 -0.084098
vn 0.037219 0.995762 -0.084098
vn -0.031476 0.996156 -0.081747
vn -0.031476 0.996156 -0.081747
vn -0.031476 0.996156 -0.081747
vn -0.031476 0.996156 -0.081747
vn -0.081748 0.996156 -0.031477
vn -0.081748 0.996156 -0.031477
vn -0.081748 0.996156 -0.031477
vn -0.081748 0.996156 -0.031477
vn -0.084100 0.995762 0.037219
vn -0.084100 0.995762 0.037219
vn -0.084100 0.995762 0.037219
vn -0.084100 0.995762 0.037219
vn -0.037219 0.995762 0.084097
vn -0.037219 0.995762 0.084097
vn -0.037219 0.995762 0.084097
vn -0.037219 0.995762 0.084097
vn 0.031476 0.996156 0.081747
vn 0.031476 0.996156 0.081747
vn 0.031476 0.996156 0.081747
vn 0.031476 0.996156 0.081747
vn 0.081749 0.996156 0.031477
vn 0.081749 0.996156 0.031477
vn 0.081749 0.996156 0.031477
vn 0.081749 0.996156 0.031477
vn 0.084100 0.995762 -0.037220
vn 0.084100 0.995762 -0.037220
vn 0.084100 0.995762 -0.037220
vn 0.084100 0.995762 -0.037220
vn 0.191832 0.880519 -0.433460
vn 0.191832 0.880519 -0.433460
vn 0.191832 0.880519 -0.433460
vn 0.191832 0.880519 -0.433460
vn -0.163900 0.889911 -0.425670
vn -0.163900 0.889911 -0.425670
vn -0.163900 0.889911 -0.425670
vn -0.163900 0.889911 -0.425670
vn -0.425670 0.889911 -0.163901
vn -0.425670 0.889911 -0.163901
vn -0.425670 0.889911 -0.163901
vn -0.425670 0.889911 -0.163901
vn -0.433461 0.880518 0.191831
vn -0.433461 0.880518 0.191831
vn -0.433461 0.880518 0.191831
vn -0.433461 0.880518 0.191831
vn -0.191831 0.880518 0.433462
vn -0.191831 0.880518 0.433462
vn -0.191831 0.880518 0.433462
vn -0.191831 0.880518 0.433462
vn 0.163899 0.889912 0.425669
vn 0.163899 0.889912 0.425669
vn 0.163899 0.889912 0.425669
vn 0.163899 0.889912 0.425669
vn 0.425669 0.889912 0.163901
vn 0.425669 0.889912 0.163901
vn 0.425669 0.889912 0.163901
vn 0.425669 0.889912 0.163901
vn 0.433465 0.880516 -0.191833
vn 0.433465 0.880516 -0.191833
vn 0.433465 0.880516 -0.191833
vn 0.433465 0.880516 -0.191833
s off
g polySurface4
usemtl aiStandardSurface2SG
f 1/1/1 2/2/2 10/3/3 9/4/4
f 2/5/5 3/6/6 11/7/7 10/8/8
f 3/6/9 4/9/10 12/10/11 11/7/12
f 4/9/13 5/11/14 13/12/15 12/10/16
f 5/11/17 6/13/18 14/14/19 13/12/20
f 6/13/21 7/15/22 15/16/23 14/14/24
f 7/15/25 8/17/26 16/18/27 15/16/28
f 8/17/29 1/1/30 9/4/31 16/18/32
s 1
f 9/19/33 10/20/34 17/21/35
f 10/20/34 11/22/36 17/21/35
f 11/22/36 12/23/37 17/21/35
f 12/23/37 13/24/38 17/21/35
f 13/24/38 14/25/39 17/21/35
f 14/25/39 15/26/40 17/21/35
f 15/26/40 16/27/41 17/21/35
f 16/27/41 9/19/33 17/21/35
s off
f 19/28/42 18/29/43 26/30/44 27/31/45
f 20/32/46 19/28/47 27/31/48 28/33/49
f 21/34/50 20/32/51 28/33/52 29/35/53
f 22/36/54 21/34/55 29/35/56 30/37/57
f 23/38/58 22/36/59 30/37/60 31/39/61
f 24/40/62 23/38/63 31/39/64 32/41/65
f 25/42/66 24/40/67 32/41/68 33/43/69
f 18/29/70 25/42/71 33/43/72 26/30/73
f 27/31/74 26/30/75 34/44/76 35/45/77
f 28/33/78 27/31/79 35/45/80 36/46/81
f 29/35/82 28/33/83 36/46/84 37/47/85
f 30/37/86 29/35/87 37/47/88 38/48/89
f 31/39/90 30/37/91 38/48/92 39/49/93
f 32/41/94 31/39/95 39/49/96 40/50/97
f 33/43/98 32/41/99 40/50/100 41/51/101
f 26/30/102 33/43/103 41/51/104 34/44/105
f 35/45/106 34/44/107 42/52/108 43/53/109
f 36/46/110 35/45/111 43/53/112 44/54/113
f 37/47/114 36/46/115 44/54/116 45/55/117
f 38/48/118 37/47/119 45/55/120 46/56/121
f 39/49/122 38/48/123 46/56/124 47/57/125
f 40/50/126 39/49/127 47/57/128 48/58/129
f 41/51/130 40/50/131 48/58/132 49/59/133
f 34/44/134 41/51/135 49/59/136 42/52/137
f 43/53/138 42/52/139 50/60/140 51/61/141
f 44/54/142 43/53/143 51/61/144 52/62/145
f 45/55/146 44/54/147 52/62/148 53/63/149
f 46/56/150 45/55/151 53/63/152 54/64/153
f 47/57/154 46/56/155 54/64/156 55/65/157
f 48/58/158 47/57/159 55/65/160 56/66/161
f 49/59/162 48/58/163 56/66/164 57/67/165
f 42/52/166 49/59/167 57/67/168 50/60/169
