# This file uses centimeters as units for non-parametric coordinates.

mtllib BackLeftBurner.mtl
g default
v -22.550253 108.499893 -32.449745
v -27.500000 108.499893 -34.500000
v -32.449745 108.499893 -32.449745
v -34.500000 108.499893 -27.500000
v -32.449745 108.499893 -22.550253
v -27.500000 108.499893 -20.500000
v -22.550251 108.499893 -22.550251
v -20.500000 108.499893 -27.500000
v -22.550253 111.499893 -32.449745
v -27.500000 111.499893 -34.500000
v -32.449745 111.499893 -32.449745
v -34.500000 111.499893 -27.500000
v -32.449745 111.499893 -22.550253
v -27.500000 111.499893 -20.500000
v -22.550251 111.499893 -22.550251
v -20.500000 111.499893 -27.500000
v -27.500000 111.499893 -27.500000
vt 0.905577 0.194143
vt 0.966253 0.169010
vt 0.844901 0.169010
vt 0.819768 0.108333
vt 0.844901 0.047657
vt 0.905577 0.022524
vt 0.966253 0.047657
vt 0.991386 0.108333
vt 0.905577 0.108333
vt 0.512466 0.012665
vt 0.512466 0.146232
vt 0.746209 0.146232
vt 0.545858 0.012665
vt 0.545858 0.146232
vt 0.579249 0.012665
vt 0.579249 0.146232
vt 0.612642 0.012665
vt 0.612642 0.146232
vt 0.646033 0.012665
vt 0.646033 0.146232
vt 0.679425 0.012665
vt 0.679425 0.146232
vt 0.712817 0.012665
vt 0.712817 0.146232
vt 0.746209 0.012665
vt 0.779601 0.012665
vt 0.779601 0.146232
vn 0.382684 0.000000 -0.923879
vn 0.382684 0.000000 -0.923879
vn 0.382684 0.000000 -0.923879
vn 0.382684 0.000000 -0.923879
vn -0.382684 0.000000 -0.923879
vn -0.382684 0.000000 -0.923879
vn -0.382684 0.000000 -0.923879
vn -0.382684 0.000000 -0.923879
vn -0.923879 0.000000 -0.382684
vn -0.923879 0.000000 -0.382684
vn -0.923879 0.000000 -0.382684
vn -0.923879 0.000000 -0.382684
vn -0.923879 0.000000 0.382684
vn -0.923879 0.000000 0.382684
vn -0.923879 0.000000 0.382684
vn -0.923879 0.000000 0.382684
vn -0.382683 0.000000 0.923880
vn -0.382683 0.000000 0.923880
vn -0.382683 0.000000 0.923880
vn -0.382683 0.000000 0.923880
vn 0.382683 0.000000 0.923880
vn 0.382683 0.000000 0.923880
vn 0.382683 0.000000 0.923880
vn 0.382683 0.000000 0.923880
vn 0.923880 0.000000 0.382683
vn 0.923880 0.000000 0.382683
vn 0.923880 0.000000 0.382683
vn 0.923880 0.000000 0.382683
vn 0.923880 0.000000 -0.382684
vn 0.923880 0.000000 -0.382684
vn 0.923880 0.000000 -0.382684
vn 0.923880 0.000000 -0.382684
vn 0.000000 1.000000 0.000000
vn 0.000000 1.000000 0.000000
vn 0.000000 1.000000 0.000000
vn 0.000000 1.000000 0.000000
vn 0.000000 1.000000 0.000000
vn 0.000000 1.000000 0.000000
vn 0.000000 1.000000 0.000000
vn 0.000000 1.000000 0.000000
vn 0.000000 1.000000 0.000000
s off
g Back_Left_Burner_Inner_Element_geo Back_Left_Burner_grp Stove_grp
usemtl initialShadingGroup
f 1/25/1 2/26/2 10/27/3 9/12/4
f 2/10/5 3/13/6 11/14/7 10/11/8
f 3/13/9 4/15/10 12/16/11 11/14/12
f 4/15/13 5/17/14 13/18/15 12/16/16
f 5/17/17 6/19/18 14/20/19 13/18/20
f 6/19/21 7/21/22 15/22/23 14/20/24
f 7/21/25 8/23/26 16/24/27 15/22/28
f 8/23/29 1/25/30 9/12/31 16/24/32
s 1
f 9/2/33 10/1/34 17/9/35
f 10/1/34 11/3/36 17/9/35
f 11/3/36 12/4/37 17/9/35
f 12/4/37 13/5/38 17/9/35
f 13/5/38 14/6/39 17/9/35
f 14/6/39 15/7/40 17/9/35
f 15/7/40 16/8/41 17/9/35
f 16/8/41 9/2/33 17/9/35
g default
v -27.500000 109.999901 -33.466003
v -32.021961 109.999901 -31.718601
v -33.895016 109.999901 -27.500004
v -32.021961 109.999901 -23.281404
v -27.500000 109.999901 -21.534004
v -22.978043 109.999901 -23.281404
v -21.104984 109.999901 -27.500002
v -22.978043 109.999901 -31.718601
v -27.500000 110.913910 -35.213402
v -33.346409 110.913910 -32.954201
v -35.768074 110.913910 -27.500004
v -33.346409 110.913910 -22.045807
v -27.500000 110.913910 -19.786604
v -21.653591 110.913910 -22.045807
v -19.231928 110.913910 -27.500002
v -21.653591 110.913910 -32.954201
v -27.500000 111.292480 -39.432003
v -36.543919 111.292480 -35.937199
v -40.290031 111.292480 -27.500004
v -36.543919 111.292480 -19.062805
v -27.500000 111.292480 -15.568005
v -18.456083 111.292480 -19.062805
v -14.709967 111.292480 -27.500002
v -18.456081 111.292480 -35.937202
v -27.500000 110.913910 -43.650597
v -39.741425 110.913910 -38.920200
v -44.811989 110.913910 -27.500004
v -39.741425 110.913910 -16.079807
v -27.500000 110.913910 -11.349408
v -15.258575 110.913910 -16.079807
v -10.188009 110.913910 -27.500002
v -15.258574 110.913910 -38.920200
v -27.500000 109.999901 -45.398003
v -41.065876 109.999901 -40.155800
v -46.685051 109.999901 -27.500002
v -41.065876 109.999901 -14.844208
v -27.500000 109.999901 -9.602005
v -13.934124 109.999901 -14.844208
v -8.314953 109.999901 -27.500004
v -13.934122 109.999901 -40.155800
vt 0.650540 0.865903
vt 0.687612 0.881259
vt 0.687612 0.896615
vt 0.639682 0.876761
vt 0.635184 0.828831
vt 0.619828 0.828831
vt 0.650540 0.791759
vt 0.639682 0.780901
vt 0.687612 0.776403
vt 0.687612 0.761047
vt 0.724685 0.791759
vt 0.735543 0.780901
vt 0.740040 0.828831
vt 0.755396 0.828831
vt 0.724685 0.865903
vt 0.735543 0.876761
vt 0.687612 0.933687
vt 0.613468 0.902975
vt 0.582756 0.828831
vt 0.613468 0.754687
vt 0.687612 0.723975
vt 0.761757 0.754687
vt 0.792468 0.828831
vt 0.761757 0.902975
vt 0.687612 0.970759
vt 0.587254 0.929189
vt 0.545684 0.828831
vt 0.587254 0.728473
vt 0.687612 0.686903
vt 0.787971 0.728473
vt 0.829540 0.828831
vt 0.787971 0.929189
vt 0.687612 0.986115
vt 0.576396 0.940048
vt 0.530328 0.828831
vt 0.576396 0.717614
vt 0.687612 0.671547
vt 0.798829 0.717614
vt 0.844896 0.828831
vt 0.798829 0.940048
vn 0.176299 0.872222 0.456232
vn 0.176300 0.872222 0.456232
vn 0.176300 0.872222 0.456232
vn 0.176299 0.872222 0.456232
vn 0.430464 0.882140 0.191125
vn 0.430464 0.882141 0.191125
vn 0.430464 0.882140 0.191125
vn 0.430464 0.882141 0.191125
vn 0.430464 0.882141 -0.191125
vn 0.430464 0.882141 -0.191125
vn 0.430464 0.882141 -0.191125
vn 0.430464 0.882141 -0.191125
vn 0.176299 0.872222 -0.456233
vn 0.176299 0.872222 -0.456232
vn 0.176299 0.872222 -0.456232
vn 0.176299 0.872222 -0.456232
vn -0.176299 0.872222 -0.456231
vn -0.176299 0.872222 -0.456231
vn -0.176299 0.872222 -0.456231
vn -0.176299 0.872222 -0.456231
vn -0.430465 0.882140 -0.191125
vn -0.430465 0.882140 -0.191125
vn -0.430465 0.882140 -0.191125
vn -0.430465 0.882140 -0.191125
vn -0.430465 0.882140 0.191125
vn -0.430465 0.882140 0.191125
vn -0.430465 0.882140 0.191125
vn -0.430465 0.882140 0.191125
vn -0.176299 0.872222 0.456233
vn -0.176299 0.872222 0.456232
vn -0.176299 0.872222 0.456232
vn -0.176299 0.872222 0.456232
vn 0.034518 0.995404 0.089327
vn 0.034518 0.995404 0.089327
vn 0.034518 0.995404 0.089327
vn 0.034518 0.995404 0.089327
vn 0.083369 0.995831 0.037016
vn 0.083369 0.995831 0.037016
vn 0.083369 0.995831 0.037016
vn 0.083369 0.995831 0.037016
vn 0.083369 0.995831 -0.037016
vn 0.083369 0.995831 -0.037016
vn 0.083369 0.995831 -0.037016
vn 0.083369 0.995831 -0.037016
vn 0.034518 0.995404 -0.089327
vn 0.034518 0.995404 -0.089327
vn 0.034518 0.995404 -0.089327
vn 0.034518 0.995404 -0.089327
vn -0.034518 0.995404 -0.089326
vn -0.034518 0.995404 -0.089326
vn -0.034518 0.995404 -0.089326
vn -0.034518 0.995404 -0.089326
vn -0.083369 0.995831 -0.037016
vn -0.083369 0.995831 -0.037016
vn -0.083369 0.995831 -0.037016
vn -0.083369 0.995831 -0.037016
vn -0.083369 0.995831 0.037015
vn -0.083369 0.995831 0.037015
vn -0.083369 0.995831 0.037015
vn -0.083369 0.995831 0.037015
vn -0.034518 0.995404 0.089327
vn -0.034518 0.995404 0.089327
vn -0.034518 0.995404 0.089327
vn -0.034518 0.995404 0.089327
vn -0.034518 0.995404 -0.089326
vn -0.034518 0.995404 -0.089326
vn -0.034518 0.995404 -0.089326
vn -0.034518 0.995404 -0.089326
vn -0.083369 0.995831 -0.037016
vn -0.083369 0.995831 -0.037016
vn -0.083369 0.995831 -0.037016
vn -0.083369 0.995831 -0.037016
vn -0.083369 0.995831 0.037016
vn -0.083369 0.995831 0.037016
vn -0.083369 0.995831 0.037016
vn -0.083369 0.995831 0.037016
vn -0.034518 0.995404 0.089325
vn -0.034518 0.995404 0.089325
vn -0.034518 0.995404 0.089325
vn -0.034518 0.995404 0.089325
vn 0.034518 0.995404 0.089325
vn 0.034518 0.995404 0.089325
vn 0.034518 0.995404 0.089325
vn 0.034518 0.995404 0.089325
vn 0.083369 0.995831 0.037016
vn 0.083369 0.995831 0.037016
vn 0.083369 0.995831 0.037016
vn 0.083369 0.995831 0.037016
vn 0.083369 0.995831 -0.037016
vn 0.083369 0.995831 -0.037016
vn 0.083369 0.995831 -0.037016
vn 0.083369 0.995831 -0.037016
vn 0.034518 0.995404 -0.089325
vn 0.034518 0.995404 -0.089325
vn 0.034518 0.995404 -0.089325
vn 0.034518 0.995404 -0.089325
vn -0.176299 0.872222 -0.456232
vn -0.176299 0.872222 -0.456232
vn -0.176299 0.872222 -0.456232
vn -0.176299 0.872222 -0.456232
vn -0.430463 0.882141 -0.191126
vn -0.430463 0.882141 -0.191126
vn -0.430463 0.882141 -0.191126
vn -0.430463 0.882141 -0.191126
vn -0.430463 0.882141 0.191125
vn -0.430463 0.882141 0.191125
vn -0.430463 0.882141 0.191125
vn -0.430463 0.882141 0.191125
vn -0.176299 0.872222 0.456231
vn -0.176299 0.872222 0.456231
vn -0.176299 0.872222 0.456231
vn -0.176299 0.872222 0.456231
vn 0.176299 0.872222 0.456232
vn 0.176299 0.872222 0.456232
vn 0.176299 0.872222 0.456232
vn 0.176299 0.872222 0.456232
vn 0.430464 0.882140 0.191126
vn 0.430464 0.882140 0.191126
vn 0.430464 0.882140 0.191126
vn 0.430464 0.882140 0.191126
vn 0.430464 0.882140 -0.191128
vn 0.430464 0.882140 -0.191128
vn 0.430464 0.882140 -0.191128
vn 0.430464 0.882140 -0.191128
vn 0.176299 0.872222 -0.456231
vn 0.176299 0.872222 -0.456231
vn 0.176299 0.872222 -0.456231
vn 0.176299 0.872222 -0.456231
s off
g Back_Left_Burner_grp Stove_grp Back_Left_Burner_Outer_Element_geo
usemtl initialShadingGroup
f 19/28/42 18/29/43 26/30/44 27/31/45
f 20/32/46 19/28/47 27/31/48 28/33/49
f 21/34/50 20/32/51 28/33/52 29/35/53
f 22/36/54 21/34/55 29/35/56 30/37/57
f 23/38/58 22/36/59 30/37/60 31/39/61
f 24/40/62 23/38/63 31/39/64 32/41/65
f 25/42/66 24/40/67 32/41/68 33/43/69
f 18/29/70 25/42/71 33/43/72 26/30/73
f 27/31/74 26/30/75 34/44/76 35/45/77
f 28/33/78 27/31/79 35/45/80 36/46/81
f 29/35/82 28/33/83 36/46/84 37/47/85
f 30/37/86 29/35/87 37/47/88 38/48/89
f 31/39/90 30/37/91 38/48/92 39/49/93
f 32/41/94 31/39/95 39/49/96 40/50/97
f 33/43/98 32/41/99 40/50/100 41/51/101
f 26/30/102 33/43/103 41/51/104 34/44/105
f 35/45/106 34/44/107 42/52/108 43/53/109
f 36/46/110 35/45/111 43/53/112 44/54/113
f 37/47/114 36/46/115 44/54/116 45/55/117
f 38/48/118 37/47/119 45/55/120 46/56/121
f 39/49/122 38/48/123 46/56/124 47/57/125
f 40/50/126 39/49/127 47/57/128 48/58/129
f 41/51/130 40/50/131 48/58/132 49/59/133
f 34/44/134 41/51/135 49/59/136 42/52/137
f 43/53/138 42/52/139 50/60/140 51/61/141
f 44/54/142 43/53/143 51/61/144 52/62/145
f 45/55/146 44/54/147 52/62/148 53/63/149
f 46/56/150 45/55/151 53/63/152 54/64/153
f 47/57/154 46/56/155 54/64/156 55/65/157
f 48/58/158 47/57/159 55/65/160 56/66/161
f 49/59/162 48/58/163 56/66/164 57/67/165
f 42/52/166 49/59/167 57/67/168 50/60/169
