# This file uses centimeters as units for non-parametric coordinates.

mtllib butterStick.mtl
g default
v -1.099439 -2.783006 5.797763
v -1.097116 -2.694392 5.867997
v -1.184878 -2.706253 5.797746
v 0.046127 -2.777871 5.867997
v 0.046652 -2.865757 5.793638
v 0.161221 -2.874258 5.793638
v 0.161382 -2.786575 5.867997
v -1.565799 -0.083524 5.867997
v -1.570741 -0.000000 5.786375
v -1.645369 -0.084244 5.782510
v 0.060528 -0.081256 5.867997
v 0.059044 -0.000000 5.786785
v -0.055830 -0.000000 5.786785
v -0.054406 -0.081169 5.867997
v -1.579757 -0.000000 -5.781740
v -1.574992 -0.081212 -5.867997
v -1.656219 -0.085699 -5.781740
v -0.056337 -0.081655 -5.867103
v -0.059748 -0.000000 -5.786337
v 0.055149 -0.000000 -5.786337
v 0.058525 -0.081655 -5.867103
v -1.246103 -2.993743 -5.866169
v -1.245160 -3.077119 -5.788172
v -1.332191 -3.007906 -5.791353
v 0.095787 -2.860218 -5.835279
v 0.095526 -2.946616 -5.759205
v -0.018718 -2.958094 -5.761921
v -0.018883 -2.871865 -5.838005
v -1.406826 -1.446277 5.789774
v -1.321790 -1.442557 5.867997
v -1.343404 -1.326938 5.867997
v -1.427603 -1.332878 5.789728
v 1.303616 -2.956103 5.791852
v 1.388797 -2.882336 5.788783
v 1.304015 -2.869915 5.867997
v 1.528275 -1.423904 5.788711
v 1.445667 -1.416202 5.867997
v 1.434161 -1.530744 5.867997
v 1.516913 -1.538410 5.788589
v -1.494864 -0.079009 2.991380
v -1.411355 -0.000000 2.991424
v -1.409845 -0.000000 2.876573
v -1.493250 -0.079006 2.876541
v 1.656148 -0.081689 5.785925
v 1.578618 -0.000000 5.782450
v 1.575370 -0.082090 5.867997
v 1.523997 -0.000000 2.991424
v 1.605989 -0.080444 2.991424
v 1.605989 -0.080444 2.876573
v 1.523997 -0.000000 2.876573
v -1.501367 -1.485449 -5.789045
v -1.417488 -1.478421 -5.867153
v -1.404281 -1.592793 -5.867152
v -1.488317 -1.599632 -5.789045
v 1.579097 -0.000000 -5.785837
v 1.652943 -0.084997 -5.780762
v 1.575477 -0.082138 -5.866112
v 1.454932 -1.349082 -5.837987
v 1.536597 -1.352923 -5.757503
v 1.525420 -1.467876 -5.754708
v 1.443524 -1.464524 -5.835340
v -1.659125 -3.245997 -2.991451
v -1.577704 -3.327064 -2.991380
v -1.576510 -3.329233 -2.876453
v -1.658303 -3.248303 -2.876699
v 1.407773 -2.743049 -5.729509
v 1.326423 -2.826892 -5.732987
v 1.323437 -2.736843 -5.807225
v 1.577647 -3.321633 -2.990729
v 1.656375 -3.237325 -2.991442
v 1.661892 -3.248918 -2.876582
v 1.582821 -3.332028 -2.876412
v -1.573213 -0.085074 0.057395
v -1.495964 -0.000000 0.057458
v -1.499574 -0.000000 -0.057393
v -1.576713 -0.085075 -0.057403
v -1.584802 -0.000000 -2.991424
v -1.666014 -0.081212 -2.991430
v -1.664398 -0.081212 -2.876590
v -1.583153 -0.000000 -2.876573
v 1.583555 -0.000000 0.057426
v 1.664785 -0.081212 0.057456
v 1.662782 -0.081212 -0.057378
v 1.581439 -0.000000 -0.057426
v 1.507934 -0.079179 -2.991424
v 1.424607 -0.000000 -2.991424
v 1.424607 -0.000000 -2.876573
v 1.507934 -0.079179 -2.876573
v 1.666014 -3.248774 0.057426
v 1.582858 -3.327994 0.057426
v 1.582858 -3.327994 -0.057426
v 1.666014 -3.248774 -0.057426
v 1.658742 -3.242365 2.991290
v 1.578302 -3.324622 2.991165
v 1.584103 -3.332028 2.876507
v 1.664471 -3.250126 2.876556
v -1.202657 -3.196041 0.057426
v -1.286283 -3.116975 0.057426
v -1.286283 -3.116975 -0.057426
v -1.202657 -3.196041 -0.057426
v -1.572819 -3.321020 2.990859
v -1.651595 -3.237049 2.991463
v -1.653832 -3.246243 2.876586
v -1.574344 -3.329224 2.876246
v 0.099049 -0.000000 0.057426
v 0.096346 -0.000000 -0.057426
v -0.018608 -0.000000 -0.057426
v -0.015804 -0.000000 0.057426
v 1.664397 -1.608588 -0.057403
v 1.665399 -1.608578 0.057433
v 1.665399 -1.723440 0.057422
v 1.664397 -1.723440 -0.057403
v 0.251039 -3.264973 -0.057404
v 0.251059 -3.264974 0.057426
v 0.136073 -3.259396 0.057404
v 0.136073 -3.259396 -0.057404
v -1.435814 -1.539006 0.057345
v -1.437576 -1.538877 -0.057360
v -1.426361 -1.653326 -0.057227
v -1.424622 -1.653332 0.057345
v 0.114362 -0.000000 2.991424
v 0.115159 -0.000000 2.876573
v 0.000306 -0.000000 2.876573
v -0.000512 -0.000000 2.991424
v 1.634162 -1.608599 2.876576
v 1.631293 -1.604753 2.991388
v 1.633461 -1.719835 2.991382
v 1.636325 -1.723429 2.876576
v 0.061418 -3.330634 2.876590
v 0.059777 -3.322830 2.990931
v -0.055402 -3.322868 2.990689
v -0.053692 -3.330634 2.876590
v -1.570274 -1.602836 2.991351
v -1.570563 -1.607184 2.876571
v -1.576730 -1.721985 2.876643
v -1.576462 -1.718089 2.991351
v 0.058204 -3.324383 -2.990913
v 0.061610 -3.330629 -2.876410
v -0.053692 -3.330634 -2.876590
v -0.056657 -3.324383 -2.990913
v 1.579472 -1.603218 -2.991418
v 1.582166 -1.608657 -2.876594
v 1.587854 -1.723369 -2.876595
v 1.585184 -1.718406 -2.991418
v -0.022718 -0.000000 -2.876573
v -0.023555 -0.000000 -2.991424
v -0.138451 -0.000000 -2.991424
v -0.137672 -0.000000 -2.876573
v -1.661357 -1.607182 -2.876762
v -1.662569 -1.605906 -2.991464
v -1.662577 -1.721014 -2.991321
v -1.661357 -1.722066 -2.876762
v -0.038449 -1.416263 -5.853143
v 0.076336 -1.411093 -5.851920
v 0.077875 -1.525984 -5.850663
v -0.036910 -1.531154 -5.851886
v 0.108708 -1.373317 5.867997
v -0.006361 -1.369630 5.867997
v -0.002068 -1.484677 5.867997
v 0.113000 -1.488364 5.867997
vt 0.259872 0.447058
vt 0.253034 0.439597
vt 0.347631 0.434048
vt 0.348477 0.441744
vt 0.251239 0.447797
vt 0.258076 0.561858
vt 0.249915 0.561277
vt 0.135581 0.424968
vt 0.257701 0.298501
vt 0.250101 0.572755
vt 0.131371 0.560624
vt 0.131632 0.549623
vt 0.258312 0.573166
vt 0.340718 0.555225
vt 0.340442 0.564861
vt 0.263990 0.686666
vt 0.255593 0.685251
vt 0.010615 0.396563
vt 0.249043 0.169157
vt 0.257490 0.287172
vt 0.124918 0.422564
vt 0.601830 0.028548
vt 0.002065 0.537912
vt 0.788472 0.028534
vt 0.621467 0.126313
vt 0.325123 0.161927
vt 0.001483 0.548728
vt 0.121052 0.548706
vt 0.120798 0.559646
vt 0.802625 0.028534
vt -0.005256 0.690847
vt 0.259491 0.991411
vt 0.809440 0.126313
vt 0.795287 0.126313
vt 0.600719 0.433193
vt 0.866675 0.462018
vt 0.488079 0.152853
vt 0.600097 0.335589
vt 0.865722 0.469844
vt 0.787989 0.433354
vt 0.844004 0.610597
vt 0.735236 0.462574
vt 0.574004 0.279728
vt 0.842291 0.621285
vt 0.720435 0.603360
vt 0.721671 0.592526
vt 0.802145 0.433354
vt 0.778293 0.335589
vt 0.792448 0.335589
vt 0.989900 0.433336
vt 0.818841 0.761611
vt 0.592343 0.452058
vt 0.583888 0.435975
vt 0.574933 0.291069
vt 0.724509 0.461869
vt 0.584242 0.450100
vt 0.589432 0.572119
vt 0.581432 0.570910
vt 0.506542 0.438985
vt 0.506619 0.430813
vt 0.588767 0.583446
vt 0.711187 0.590976
vt 0.709963 0.601851
vt 0.580800 0.582082
vt 0.578517 0.703980
vt 0.569810 0.703732
vt 0.503322 0.570079
vt 0.503867 0.560276
vt 0.333972 0.303468
vt 0.334396 0.313896
vt 0.264598 0.700961
vt 0.344493 0.690076
vt 0.343984 0.699252
vt 0.259345 0.841982
vt 0.129766 0.686250
vt 0.259238 0.853532
vt 0.334045 0.832063
vt 0.334096 0.842654
vt 0.119061 0.686490
vt 0.259246 0.980966
vt 0.328275 0.161649
vt 0.337080 0.303589
vt 0.621653 0.130331
vt 0.795388 0.130331
vt 0.611042 0.228942
vt 0.405641 0.157869
vt 0.334111 0.983674
vt 0.983112 0.126314
vt 0.337140 0.994435
vt 0.809538 0.130331
vt 0.337253 0.983765
vt 0.337195 0.842487
vt 0.414323 0.983658
vt 0.990450 0.228943
vt 0.499800 0.302480
vt 0.498866 0.292231
vt 0.575449 0.979517
vt 0.970867 0.335589
vt 0.499037 0.985023
vt 0.571775 0.860577
vt 0.704393 0.732595
vt 0.693929 0.730014
vt 0.571683 0.849250
vt 0.498402 0.842783
vt 0.498451 0.831979
vt 0.568382 0.718103
vt 0.503944 0.430971
vt 0.496547 0.302598
vt 0.503703 0.438979
vt 0.500595 0.560318
vt 0.427888 0.451438
vt 0.427565 0.439173
vt 0.488298 0.703862
vt 0.487884 0.694719
vt 0.485035 0.694628
vt 0.500100 0.570018
vt 0.485405 0.703465
vt 0.495224 0.831888
vt 0.417691 0.703722
vt 0.417893 0.693812
vt 0.408767 0.157662
vt 0.416459 0.292092
vt 0.413352 0.292284
vt 0.610598 0.232959
vt 0.793403 0.228943
vt 0.793058 0.232960
vt 0.600300 0.331572
vt 0.485008 0.153043
vt 0.778389 0.331572
vt 0.495779 0.292473
vt 0.417931 0.994176
vt 0.807220 0.232960
vt 0.807553 0.228943
vt 0.417461 0.983682
vt 0.414422 0.845191
vt 0.417577 0.845196
vt 0.495853 0.985129
vt 0.970867 0.331572
vt 0.495313 0.842467
vt 0.792551 0.331572
vt 0.414919 0.703717
vt 0.417536 0.835275
vt 0.414403 0.835197
vt 0.415141 0.693714
vt 0.346845 0.699145
vt 0.347343 0.690334
vt 0.419669 0.580010
vt 0.422700 0.580089
vt 0.337243 0.832138
vt 0.343677 0.564879
vt 0.424860 0.451464
vt 0.423191 0.570458
vt 0.420091 0.570372
vt 0.424720 0.439233
vt 0.351261 0.441756
vt 0.350314 0.434353
vt 0.414192 0.302976
vt 0.417262 0.302777
vt 0.344067 0.555387
vt 0.337735 0.313772
vt 0.576395 0.711786
vt 0.692225 0.737722
vt 0.702735 0.740311
vt 0.817467 0.769021
vt 0.735834 0.454502
vt 0.725004 0.453786
vt -0.005813 0.698631
vt 0.119392 0.694480
vt 0.130205 0.694248
vt 0.256615 0.693414
vt 0.136489 0.416885
vt 0.125945 0.414520
vt 0.592027 0.443725
vt 0.561736 0.147671
vt 0.011009 0.388845
vt 0.260683 0.432417
vt 0.496209 0.995778
vt 0.498971 0.995703
vt 0.990189 0.232960
vt 0.414476 0.994204
vt 0.487067 0.142260
vt 0.483861 0.142479
vt 0.407533 0.147106
vt 0.404454 0.147317
vt 0.826554 0.763392
vt 0.575098 0.989891
vt 0.983112 0.130331
vt 0.334121 0.994365
vt -0.013204 0.690908
vt 0.989841 0.028685
vt 0.327685 0.150989
vt 0.324957 0.151242
vt 0.850115 0.622273
vt 0.851838 0.611492
vt 0.560893 0.137027
vt 0.873582 0.470467
vt -0.005753 0.537319
vt -0.006348 0.548211
vt 0.002630 0.395488
vt 0.249224 0.158790
vn -0.074093 -0.976640 0.201705
vn -0.984350 -0.094774 0.148569
vn -0.983952 -0.122212 0.130008
vn -0.099159 -0.978223 0.182337
vn -0.048879 -0.048879 0.997608
vn -0.032141 -0.979708 0.197839
vn -0.003890 -0.054956 0.998481
vn -0.065889 -0.011522 0.997760
vn -0.988459 -0.056173 0.140686
vn -0.003290 -0.045866 0.998942
vn 0.000000 0.000000 1.000000
vn 0.000000 0.000000 1.000000
vn -0.032192 -0.985486 0.166676
vn -0.030067 -0.984637 0.172007
vn -0.030130 -0.989503 0.141337
vn 0.015731 -0.986346 0.163934
vn 0.056209 -0.054728 0.996918
vn -0.062596 0.059846 0.996243
vn -0.999777 -0.001409 0.021058
vn -0.998104 -0.054799 0.028043
vn -0.046017 -0.008041 0.998908
vn -0.062825 0.997645 0.027513
vn -0.000051 0.061913 0.998082
vn -0.000023 0.999588 0.028685
vn -0.043482 0.999052 -0.002296
vn -0.999891 0.014546 -0.002553
vn 0.000103 0.064739 0.997902
vn 0.000000 0.000000 1.000000
vn 0.000000 0.000000 1.000000
vn 0.000049 0.999546 0.030137
vn 0.058651 0.060469 0.996445
vn 0.055279 0.998088 0.027659
vn 0.000000 1.000000 -0.000000
vn 0.000000 1.000000 -0.000000
vn -0.051931 0.998286 -0.026999
vn -0.998484 -0.002662 -0.054982
vn -0.999594 0.001792 -0.028436
vn -0.053747 0.998555 -0.000147
vn -0.053834 0.053488 -0.997116
vn -0.000031 0.999513 -0.031193
vn 0.004909 0.053114 -0.998576
vn -0.046724 -0.010501 -0.998853
vn -0.996711 -0.055490 -0.059051
vn 0.005199 0.047079 -0.998878
vn 0.005990 -0.016466 -0.999847
vn 0.005677 -0.005466 -0.999969
vn 0.000016 0.999635 -0.027031
vn 0.000000 1.000000 -0.000000
vn 0.000000 1.000000 0.000000
vn 0.061743 0.997716 -0.027392
vn 0.060724 0.043078 -0.997225
vn -0.034288 -0.059961 -0.997612
vn -0.987610 -0.102534 -0.118796
vn -0.991530 -0.055609 -0.117375
vn -0.043426 -0.010639 -0.999000
vn 0.006238 -0.991756 -0.127993
vn 0.021866 -0.050394 -0.998490
vn 0.047432 -0.989734 -0.134819
vn -0.028935 -0.993591 -0.109270
vn -0.989588 -0.109476 -0.093434
vn 0.023784 -0.072024 -0.997119
vn 0.016600 -0.004881 -0.999850
vn 0.017424 -0.016853 -0.999706
vn 0.047369 -0.982993 -0.177429
vn 0.069740 -0.064151 -0.995500
vn 0.098813 -0.978052 -0.183438
vn 0.044014 -0.987345 -0.152357
vn 0.043506 -0.993449 -0.105675
vn -0.998870 -0.046984 0.007092
vn -0.992332 -0.049147 0.113411
vn 0.992081 -0.078333 0.098184
vn 0.035549 -0.988981 0.143712
vn 0.991369 -0.103255 0.080788
vn 0.994452 -0.037814 0.098165
vn 0.062681 -0.006049 0.998015
vn 0.998643 -0.037383 0.036273
vn 0.997007 -0.034121 0.069370
vn 0.999348 -0.033468 0.013574
vn 0.052653 -0.005033 0.998600
vn 0.999340 0.014868 0.033130
vn -0.999269 0.037424 -0.007793
vn -0.999762 -0.017530 -0.012957
vn -0.048159 0.998839 0.001289
vn 0.000000 1.000000 0.000000
vn -0.059376 0.998234 0.001692
vn -0.999609 0.027110 -0.006807
vn 0.999710 0.022305 0.009103
vn 0.049018 0.998798 -0.000872
vn 0.049121 0.998792 0.000983
vn 0.000000 1.000000 0.000000
vn 0.997980 0.061485 0.016007
vn 0.999833 0.009720 0.015507
vn 0.998225 0.057636 0.015023
vn 0.056948 0.998377 0.001101
vn -0.994838 -0.052258 -0.086988
vn -0.998136 -0.051832 -0.032211
vn 0.999474 0.032041 -0.004948
vn 0.043233 0.999063 0.002181
vn 0.998781 0.045770 0.018501
vn 0.999801 -0.018593 -0.007279
vn 0.054123 -0.021629 -0.998300
vn 0.077692 -0.023350 -0.996704
vn 0.996259 -0.020764 -0.083887
vn 0.999840 -0.013182 0.012119
vn 0.998345 -0.015247 -0.055447
vn 0.994932 -0.054079 -0.084765
vn -0.989795 -0.093739 0.107327
vn -0.993611 -0.045862 0.103124
vn -0.096770 -0.994301 0.044739
vn -0.021888 -0.999144 0.035114
vn -0.059727 -0.997318 0.042305
vn -0.988978 -0.101109 0.108166
vn 0.992554 -0.096627 -0.074159
vn 0.099030 -0.982331 -0.158807
vn 0.033158 -0.999409 0.009078
vn -0.021589 -0.999716 0.010120
vn 0.999535 -0.026883 -0.014394
vn 0.999541 0.025759 -0.015963
vn 0.999528 -0.027752 -0.013210
vn 0.031787 -0.999423 0.011949
vn -0.998572 0.005032 0.053187
vn -0.997201 -0.049428 0.056101
vn -0.999670 -0.023017 -0.011381
vn -0.048948 0.998800 0.001519
vn 0.000000 1.000000 0.000000
vn 0.000000 1.000000 0.000000
vn -0.059548 0.998224 0.001812
vn -0.998595 0.004813 0.052763
vn 0.000000 1.000000 0.000000
vn -0.997386 -0.045813 0.055875
vn 0.062586 0.998034 -0.003354
vn 0.000000 1.000000 0.000000
vn 0.000000 1.000000 0.000000
vn 0.996718 0.069600 -0.041339
vn 0.999854 0.009078 0.014486
vn 0.998918 0.023841 -0.039920
vn 0.995961 0.079728 -0.041292
vn 0.042715 0.999085 -0.002246
vn 0.998873 0.025602 -0.039979
vn 0.000000 1.000000 0.000000
vn 0.999101 -0.042135 0.004749
vn 0.999605 0.023843 -0.014855
vn 0.999944 0.009080 0.005391
vn 0.031287 -0.999439 -0.011989
vn 0.999094 -0.042073 0.006335
vn 0.032853 -0.999416 -0.009414
vn -0.023467 -0.999635 -0.013381
vn -0.023478 -0.999635 0.013386
vn 0.999928 0.009761 0.007043
vn -0.021676 -0.999710 -0.010471
vn -0.060334 -0.997281 -0.042311
vn -0.023792 -0.999079 0.035700
vn -0.023810 -0.999079 -0.035692
vn -0.992762 -0.075922 -0.093059
vn -0.097621 -0.994292 -0.043061
vn -0.993377 -0.068231 -0.092449
vn -0.996065 -0.023494 -0.085452
vn -0.993477 -0.049492 0.102731
vn -0.021941 -0.999183 -0.033933
vn -0.996142 -0.017665 -0.085964
s 1
g pCube1
usemtl initialShadingGroup
f 1/1/1 3/176/2 102/3/3 101/4/4
f 2/5/5 1/1/1 5/6/6 4/7/7
f 3/2/2 2/5/5 30/8/8 29/171/9
f 4/7/7 7/10/10 160/11/11 159/12/12
f 6/13/13 5/6/6 131/14/14 130/15/15
f 7/10/10 6/13/13 33/16/16 35/17/17
f 8/18/18 10/175/19 32/172/20 31/21/21
f 9/199/22 8/18/18 14/23/23 13/197/24
f 10/19/19 9/200/22 41/192/25 40/26/26
f 11/27/27 14/23/23 158/28/28 157/29/29
f 12/198/30 11/27/27 46/31/31 45/189/32
f 13/24/24 12/30/30 121/33/33 124/34/34
f 15/195/35 17/174/36 78/37/37 77/181/38
f 16/39/39 15/196/35 19/194/40 18/41/41
f 17/36/36 16/39/39 52/42/42 51/165/43
f 18/41/41 21/44/44 154/45/45 153/46/46
f 20/47/47 19/40/40 147/48/48 146/49/49
f 21/44/44 20/193/47 55/185/50 57/51/51
f 22/52/52 24/173/53 54/166/54 53/55/55
f 23/56/56 22/52/52 28/57/57 27/58/58
f 24/53/53 23/56/56 63/59/59 62/60/60
f 25/61/61 28/57/57 156/62/62 155/63/63
f 26/64/64 25/61/61 68/65/65 67/66/66
f 27/58/58 26/64/64 137/67/67 140/68/68
f 29/9/9 32/20/20 133/69/69 136/70/70
f 31/21/21 30/8/8 159/12/12 158/28/28
f 34/71/71 33/16/16 94/72/72 93/73/73
f 35/17/17 34/170/71 39/169/74 38/75/75
f 36/76/76 39/74/74 127/77/77 126/78/78
f 37/79/79 36/168/76 44/167/80 46/31/31
f 38/75/75 37/79/79 157/29/29 160/11/11
f 40/26/26 43/81/81 134/82/82 133/69/69
f 42/83/83 41/25/25 124/34/34 123/84/84
f 43/81/81 42/191/83 74/184/85 73/86/86
f 45/32/32 44/80/80 48/87/87 47/188/88
f 47/88/88 50/187/89 122/90/90 121/33/33
f 49/91/91 48/87/87 126/78/78 125/92/92
f 50/89/89 49/91/91 82/93/93 81/180/94
f 51/43/43 54/54/54 151/95/95 150/96/96
f 53/55/55 52/42/42 153/46/46 156/62/62
f 56/97/97 55/186/50 86/178/98 85/99/99
f 57/51/51 56/164/97 59/163/100 58/101/101
f 58/101/101 61/102/102 155/63/63 154/45/45
f 60/103/103 59/100/100 141/104/104 144/105/105
f 61/102/102 60/162/103 66/161/106 68/65/65
f 62/60/60 65/107/107 152/108/108 151/95/95
f 64/109/109 63/59/59 140/68/68 139/110/110
f 65/107/107 64/109/109 100/111/111 99/112/112
f 67/66/66 66/106/106 70/113/113 69/114/114
f 69/114/114 72/115/115 138/116/116 137/67/67
f 71/117/117 70/113/113 144/105/105 143/118/118
f 72/115/115 71/117/117 92/119/119 91/120/120
f 73/86/86 76/121/121 118/122/122 117/123/123
f 75/124/124 74/85/85 108/125/125 107/126/126
f 76/121/121 75/183/124 80/182/127 79/128/128
f 77/38/38 80/127/127 148/129/129 147/48/48
f 79/128/128 78/37/37 150/96/96 149/130/130
f 81/94/94 84/179/131 106/132/132 105/133/133
f 83/134/134 82/93/93 110/135/135 109/136/136
f 84/131/131 83/134/134 88/137/137 87/177/138
f 85/99/99 88/137/137 142/139/139 141/104/104
f 87/138/138 86/98/98 146/49/49 145/140/140
f 89/141/141 92/119/119 112/142/142 111/143/143
f 90/144/144 89/141/141 96/145/145 95/146/146
f 91/120/120 90/144/144 114/147/147 113/148/148
f 93/73/73 96/145/145 128/149/149 127/77/77
f 95/146/146 94/72/72 130/15/15 129/150/150
f 97/151/151 100/111/111 116/152/152 115/153/153
f 98/154/154 97/151/151 104/155/155 103/156/156
f 99/112/112 98/154/154 120/157/157 119/158/158
f 101/4/4 104/155/155 132/159/159 131/14/14
f 103/156/156 102/3/3 136/70/70 135/160/160
f 105/133/133 108/125/125 123/84/84 122/90/90
f 107/126/126 106/132/132 145/140/140 148/129/129
f 109/136/136 112/142/142 143/118/118 142/139/139
f 111/143/143 110/135/135 125/92/92 128/149/149
f 113/148/148 116/152/152 139/110/110 138/116/116
f 115/153/153 114/147/147 129/150/150 132/159/159
f 117/123/123 120/157/157 135/160/160 134/82/82
f 119/158/158 118/122/122 149/130/130 152/108/108
f 11/27/27 157/29/29 37/79/79 46/31/31
f 145/140/140 106/132/132 84/179/131 87/138/138
f 58/101/101 154/45/45 21/44/44 57/51/51
f 113/148/148 138/116/116 72/115/115 91/120/120
f 83/134/134 109/136/136 142/139/139 88/137/137
f 79/128/128 149/130/130 118/122/122 76/121/121
f 105/133/133 122/90/90 50/187/89 81/94/94
f 49/91/91 125/92/92 110/135/135 82/93/93
f 129/150/150 114/147/147 90/144/144 95/146/146
f 73/86/86 117/123/123 134/82/82 43/81/81
f 121/33/33 12/30/30 45/190/32 47/88/88
f 36/76/76 126/78/78 48/87/87 44/80/80
f 6/13/13 130/15/15 94/72/72 33/16/16
f 40/26/26 133/69/69 32/20/20 10/19/19
f 137/67/67 26/64/64 67/66/66 69/114/114
f 85/99/99 141/104/104 59/100/100 56/97/97
f 20/47/47 146/49/49 86/98/98 55/50/50
f 51/43/43 150/96/96 78/37/37 17/174/36
f 101/4/4 131/14/14 5/6/6 1/1/1
f 97/151/151 115/153/153 132/159/159 104/155/155
f 64/109/109 139/110/110 116/152/152 100/111/111
f 23/56/56 27/58/58 140/68/68 63/59/59
f 16/39/39 18/41/41 153/46/46 52/42/42
f 77/38/38 147/48/48 19/40/40 15/35/35
f 75/124/124 107/126/126 148/129/129 80/127/127
f 42/83/83 123/84/84 108/125/125 74/85/85
f 9/22/22 13/24/24 124/34/34 41/25/25
f 31/21/21 158/28/28 14/23/23 8/18/18
f 2/5/5 4/7/7 159/12/12 30/8/8
f 38/75/75 160/11/11 7/10/10 35/17/17
f 34/71/71 93/73/73 127/77/77 39/74/74
f 111/143/143 128/149/149 96/145/145 89/141/141
f 143/118/118 112/142/142 92/119/119 71/117/117
f 60/103/103 144/105/105 70/113/113 66/106/106
f 25/61/61 155/63/63 61/102/102 68/65/65
f 53/55/55 156/62/62 28/57/57 22/52/52
f 24/53/53 62/60/60 151/95/95 54/54/54
f 119/158/158 152/108/108 65/107/107 99/112/112
f 135/160/160 120/157/157 98/154/154 103/156/156
f 29/9/9 136/70/70 102/3/3 3/176/2
f 1/1/1 2/5/5 3/2/2
f 4/7/7 5/6/6 6/13/13 7/10/10
f 8/18/18 9/199/22 10/175/19
f 11/27/27 12/198/30 13/197/24 14/23/23
f 15/196/35 16/39/39 17/36/36
f 18/41/41 19/194/40 20/193/47 21/44/44
f 22/52/52 23/56/56 24/173/53
f 25/61/61 26/64/64 27/58/58 28/57/57
f 29/171/9 30/8/8 31/21/21 32/172/20
f 33/16/16 34/170/71 35/17/17
f 36/168/76 37/79/79 38/75/75 39/169/74
f 40/26/26 41/192/25 42/191/83 43/81/81
f 44/167/80 45/189/32 46/31/31
f 47/188/88 48/87/87 49/91/91 50/89/89
f 51/165/43 52/42/42 53/55/55 54/166/54
f 55/185/50 56/164/97 57/51/51
f 58/101/101 59/163/100 60/162/103 61/102/102
f 62/60/60 63/59/59 64/109/109 65/107/107
f 66/161/106 67/66/66 68/65/65
f 69/114/114 70/113/113 71/117/117 72/115/115
f 73/86/86 74/184/85 75/183/124 76/121/121
f 77/181/38 78/37/37 79/128/128 80/182/127
f 81/180/94 82/93/93 83/134/134 84/131/131
f 85/99/99 86/178/98 87/177/138 88/137/137
f 89/141/141 90/144/144 91/120/120 92/119/119
f 93/73/73 94/72/72 95/146/146 96/145/145
f 97/151/151 98/154/154 99/112/112 100/111/111
f 101/4/4 102/3/3 103/156/156 104/155/155
f 105/133/133 106/132/132 107/126/126 108/125/125
f 109/136/136 110/135/135 111/143/143 112/142/142
f 113/148/148 114/147/147 115/153/153 116/152/152
f 117/123/123 118/122/122 119/158/158 120/157/157
f 121/33/33 122/90/90 123/84/84 124/34/34
f 125/92/92 126/78/78 127/77/77 128/149/149
f 129/150/150 130/15/15 131/14/14 132/159/159
f 133/69/69 134/82/82 135/160/160 136/70/70
f 137/67/67 138/116/116 139/110/110 140/68/68
f 141/104/104 142/139/139 143/118/118 144/105/105
f 145/140/140 146/49/49 147/48/48 148/129/129
f 149/130/130 150/96/96 151/95/95 152/108/108
f 153/46/46 154/45/45 155/63/63 156/62/62
f 157/29/29 158/28/28 159/12/12 160/11/11
