# This file uses centimeters as units for non-parametric coordinates.

mtllib eggShell.mtl
g default
v -0.750000 0.463672 -0.433013
v -1.250000 0.463672 -0.433013
v -1.500000 0.463672 -0.000000
v -1.250000 0.463672 0.433013
v -0.750000 0.463672 0.433013
v -0.500000 0.463672 0.000000
v -0.566987 0.829698 -0.750000
v -1.433013 0.829698 -0.750000
v -1.866025 0.829698 -0.000000
v -1.433013 0.829698 0.750000
v -0.566987 0.829698 0.750000
v -0.133975 0.829698 0.000000
v -0.522998 1.434250 -0.826191
v -1.477002 1.213183 -0.826191
v -1.954004 1.620514 -0.000001
v -1.477002 1.313080 0.826191
v -0.522998 1.659381 0.826191
v -0.045996 1.161909 -0.000000
v -0.667037 0.900011 -0.576709
v -1.332963 0.900011 -0.576708
v -1.665926 0.900011 -0.000000
v -1.332963 0.900011 0.576709
v -0.667037 0.900011 0.576709
v -0.334074 0.900011 0.000000
v -0.843511 0.663240 -0.271047
v -1.156489 0.663240 -0.271047
v -1.312978 0.663240 -0.000000
v -1.156489 0.663240 0.271047
v -0.843511 0.663240 0.271047
v -0.687022 0.663240 -0.000000
v -1.000000 0.329698 0.000000
v -1.000000 0.480312 0.000000
vt 0.236131 0.533838
vt 0.106751 0.580431
vt 0.516114 0.756712
vt 0.272095 0.581671
vt 0.200076 0.621455
vt 0.327019 0.620365
vt 0.278794 0.677126
vt 0.381605 0.645513
vt 0.358675 0.700976
vt 0.433648 0.671676
vt 0.423931 0.752780
vt 0.042232 0.668742
vt 0.489004 0.842703
vt 0.153346 0.711097
vt 0.241635 0.744199
vt 0.323773 0.781733
vt 0.409076 0.810216
vt 0.060889 0.786300
vt 0.441805 0.917067
vt 0.137169 0.806936
vt 0.224770 0.816068
vt 0.294926 0.857035
vt 0.377175 0.864007
vt 0.124456 0.889215
vt 0.373632 0.949786
vt 0.166105 0.871731
vt 0.219695 0.875221
vt 0.272822 0.894400
vt 0.326059 0.913225
vt 0.404063 0.576058
vt 0.239988 0.935829
vt 0.562292 0.653025
vt 0.612902 0.782621
vt 0.601882 0.884570
vt 0.518135 0.955969
vt 0.495806 0.674865
vt 0.417633 0.985577
vt 0.351524 1.000000
vn 0.000000 -0.654654 -0.755929
vn 0.000000 -0.654654 -0.755929
vn 0.000000 -0.654654 -0.755929
vn 0.000000 -0.654654 -0.755929
vn -0.654653 -0.654654 -0.377965
vn -0.654653 -0.654654 -0.377965
vn -0.654653 -0.654654 -0.377965
vn -0.654653 -0.654654 -0.377965
vn -0.654654 -0.654654 0.377964
vn -0.654654 -0.654654 0.377964
vn -0.654654 -0.654654 0.377964
vn -0.654654 -0.654654 0.377964
vn 0.000000 -0.654654 0.755929
vn 0.000000 -0.654654 0.755929
vn 0.000000 -0.654654 0.755929
vn 0.000000 -0.654654 0.755929
vn 0.654654 -0.654654 0.377964
vn 0.654654 -0.654654 0.377964
vn 0.654654 -0.654654 0.377964
vn 0.654654 -0.654654 0.377964
vn 0.654654 -0.654654 -0.377964
vn 0.654654 -0.654654 -0.377964
vn 0.654654 -0.654654 -0.377964
vn 0.654654 -0.654654 -0.377964
vn 0.018511 -0.152399 -0.988146
vn 0.018511 -0.152399 -0.988146
vn 0.018511 -0.152399 -0.988146
vn 0.018511 -0.152399 -0.988146
vn -0.872863 -0.128633 -0.470706
vn -0.872863 -0.128633 -0.470706
vn -0.872863 -0.128633 -0.470706
vn -0.872863 -0.128633 -0.470706
vn -0.869752 -0.118721 0.478995
vn -0.869752 -0.118721 0.478995
vn -0.869752 -0.118721 0.478995
vn -0.869752 -0.118721 0.478995
vn 0.021929 -0.115249 0.993095
vn 0.021929 -0.115249 0.993095
vn 0.021929 -0.115249 0.993095
vn 0.021929 -0.115249 0.993095
vn 0.840370 -0.129954 0.526204
vn 0.840370 -0.129954 0.526204
vn 0.840370 -0.129954 0.526204
vn 0.840370 -0.129954 0.526204
vn 0.842534 -0.160513 -0.514171
vn 0.842534 -0.160513 -0.514171
vn 0.842534 -0.160513 -0.514171
vn 0.842534 -0.160513 -0.514171
vn -0.069076 0.506177 0.859659
vn -0.069076 0.506177 0.859659
vn -0.069076 0.506177 0.859659
vn -0.069076 0.506177 0.859659
vn 0.829628 0.432139 0.353515
vn 0.829628 0.432139 0.353515
vn 0.829628 0.432139 0.353515
vn 0.829628 0.432139 0.353515
vn 0.828447 0.401696 -0.390276
vn 0.828447 0.401696 -0.390276
vn 0.828447 0.401696 -0.390276
vn 0.828447 0.401696 -0.390276
vn -0.083421 0.390226 -0.916932
vn -0.083421 0.390226 -0.916932
vn -0.083421 0.390226 -0.916932
vn -0.083421 0.390226 -0.916932
vn -0.704345 0.435046 -0.560922
vn -0.704345 0.435046 -0.560922
vn -0.704345 0.435046 -0.560922
vn -0.704345 0.435046 -0.560922
vn -0.686446 0.528950 0.499003
vn -0.686446 0.528950 0.499003
vn -0.686446 0.528950 0.499003
vn -0.686446 0.528950 0.499003
vn 0.000000 0.790562 0.612382
vn 0.000000 0.790562 0.612382
vn 0.000000 0.790562 0.612382
vn 0.000000 0.790562 0.612382
vn 0.530338 0.790562 0.306191
vn 0.530338 0.790562 0.306191
vn 0.530338 0.790562 0.306191
vn 0.530338 0.790562 0.306191
vn 0.530338 0.790562 -0.306191
vn 0.530338 0.790562 -0.306191
vn 0.530338 0.790562 -0.306191
vn 0.530338 0.790562 -0.306191
vn 0.000000 0.790561 -0.612383
vn 0.000000 0.790562 -0.612383
vn 0.000000 0.790561 -0.612383
vn 0.000000 0.790561 -0.612383
vn -0.530339 0.790562 -0.306191
vn -0.530339 0.790562 -0.306191
vn -0.530339 0.790562 -0.306191
vn -0.530339 0.790562 -0.306191
vn -0.530338 0.790562 0.306191
vn -0.530338 0.790562 0.306191
vn -0.530338 0.790562 0.306191
vn -0.530338 0.790562 0.306191
vn 0.000000 -0.955319 -0.295577
vn 0.000000 -0.955319 -0.295577
vn 0.000000 -0.955319 -0.295577
vn -0.255977 -0.955319 -0.147788
vn -0.255977 -0.955319 -0.147788
vn -0.255977 -0.955319 -0.147788
vn -0.255977 -0.955319 0.147788
vn -0.255977 -0.955319 0.147788
vn -0.255977 -0.955319 0.147788
vn -0.000000 -0.955319 0.295577
vn -0.000000 -0.955319 0.295577
vn -0.000000 -0.955319 0.295577
vn 0.255977 -0.955319 0.147788
vn 0.255977 -0.955319 0.147788
vn 0.255977 -0.955319 0.147788
vn 0.255977 -0.955319 -0.147788
vn 0.255977 -0.955319 -0.147788
vn 0.255977 -0.955319 -0.147788
vn -0.000000 0.828890 0.559412
vn -0.000000 0.828890 0.559412
vn -0.000000 0.828890 0.559412
vn 0.484465 0.828890 0.279706
vn 0.484465 0.828890 0.279706
vn 0.484465 0.828890 0.279706
vn 0.484465 0.828890 -0.279705
vn 0.484465 0.828890 -0.279705
vn 0.484465 0.828890 -0.279705
vn 0.000001 0.828890 -0.559412
vn 0.000001 0.828890 -0.559412
vn 0.000001 0.828890 -0.559412
vn -0.484465 0.828890 -0.279705
vn -0.484465 0.828890 -0.279705
vn -0.484465 0.828890 -0.279705
vn -0.484465 0.828890 0.279706
vn -0.484465 0.828890 0.279706
vn -0.484465 0.828890 0.279706
s off
g egg_geo2
usemtl initialShadingGroup
f 1/36/1 2/32/2 8/33/3 7/3/4
f 2/1/5 3/4/6 9/5/7 8/2/8
f 3/4/9 4/6/10 10/7/11 9/5/12
f 4/6/13 5/8/14 11/9/15 10/7/16
f 5/8/17 6/10/18 12/11/19 11/9/20
f 6/10/21 1/36/22 7/3/23 12/11/24
f 7/3/25 8/33/26 14/34/27 13/13/28
f 8/2/29 9/5/30 15/14/31 14/12/32
f 9/5/33 10/7/34 16/15/35 15/14/36
f 10/7/37 11/9/38 17/16/39 16/15/40
f 11/9/41 12/11/42 18/17/43 17/16/44
f 12/11/45 7/3/46 13/13/47 18/17/48
f 13/13/49 14/34/50 20/35/51 19/19/52
f 14/12/53 15/14/54 21/20/55 20/18/56
f 15/14/57 16/15/58 22/21/59 21/20/60
f 16/15/61 17/16/62 23/22/63 22/21/64
f 17/16/65 18/17/66 24/23/67 23/22/68
f 18/17/69 13/13/70 19/19/71 24/23/72
f 19/19/73 20/35/74 26/37/75 25/25/76
f 20/18/77 21/20/78 27/26/79 26/24/80
f 21/20/81 22/21/82 28/27/83 27/26/84
f 22/21/85 23/22/86 29/28/87 28/27/88
f 23/22/89 24/23/90 30/29/91 29/28/92
f 24/23/93 19/19/94 25/25/95 30/29/96
f 2/32/97 1/36/98 31/30/99
f 3/4/100 2/1/101 31/30/102
f 4/6/103 3/4/104 31/30/105
f 5/8/106 4/6/107 31/30/108
f 6/10/109 5/8/110 31/30/111
f 1/36/112 6/10/113 31/30/114
f 25/25/115 26/37/116 32/38/117
f 26/24/118 27/26/119 32/31/120
f 27/26/121 28/27/122 32/31/123
f 28/27/124 29/28/125 32/31/126
f 29/28/127 30/29/128 32/31/129
f 30/29/130 25/25/131 32/31/132
g default
v -2.101485 2.906507 -0.433013
v -2.230894 2.423545 -0.433013
v -2.295599 2.182063 -0.000000
v -2.230894 2.423544 0.433013
v -2.101485 2.906507 0.433013
v -2.036780 3.147989 0.000000
v -1.802975 2.921025 -0.591120
v -1.979636 2.261717 -0.591120
v -2.067967 1.932062 -0.000000
v -1.979636 2.261717 0.591120
v -1.802975 2.921025 0.591120
v -1.714644 3.250680 -0.000000
v -1.403715 2.954550 -0.826191
v -1.437095 1.975837 -0.826191
v -1.954003 1.620514 -0.000001
v -1.533589 2.001692 0.826191
v -1.621175 3.012818 0.826191
v -1.017197 3.344812 -0.000000
v -2.120555 2.997508 -0.576709
v -2.292910 2.354272 -0.576708
v -2.379087 2.032654 -0.000000
v -2.292910 2.354272 0.576709
v -2.120555 2.997507 0.576709
v -2.034378 3.319125 0.000000
v -2.413299 2.893248 -0.271047
v -2.494303 2.590934 -0.271047
v -2.534806 2.439777 -0.000000
v -2.494303 2.590934 0.271047
v -2.413298 2.893248 0.271047
v -2.372797 3.044405 -0.000000
v -2.400400 2.727782 0.000000
v -2.578105 2.775398 0.000000
vt 0.335424 0.219692
vt 0.253744 0.189388
vt 0.234768 0.143724
vt 0.356197 0.171356
vt 0.192395 0.232181
vt 0.134513 0.233509
vt 0.216988 0.280559
vt 0.193848 0.300820
vt 0.269480 0.317635
vt 0.264961 0.362369
vt 0.326401 0.298640
vt 0.358374 0.339627
vt 0.458786 0.242934
vt 0.071083 0.260677
vt 0.161217 0.336095
vt 0.254773 0.404207
vt 0.376916 0.464014
vt 0.000000 0.497806
vt 0.085394 0.582645
vt 0.041246 0.376506
vt 0.118388 0.402830
vt 0.191707 0.450020
vt 0.208875 0.542723
vt 0.060289 0.485133
vt 0.094832 0.521261
vt 0.073304 0.442306
vt 0.109900 0.445716
vt 0.142955 0.473168
vt 0.142048 0.511059
vt 0.270190 0.250346
vt 0.102691 0.481744
vt 0.358781 0.130987
vt 0.373330 0.023366
vt 0.388827 0.234935
vt 0.443623 0.393331
vt 0.436067 0.126124
vt 0.553518 0.096969
vt 0.421345 0.003742
vt 0.513235 0.000000
vt 0.564767 0.201100
vt 0.613631 0.285710
vt 0.497938 0.380508
vn 0.469110 -0.125698 0.874149
vn 0.469110 -0.125698 0.874149
vn 0.469110 -0.125698 0.874149
vn 0.469110 -0.125698 0.874149
vn 0.665045 0.605542 0.437075
vn 0.665045 0.605542 0.437075
vn 0.665045 0.605542 0.437075
vn 0.665045 0.605542 0.437075
vn 0.665045 0.605543 -0.437074
vn 0.665045 0.605543 -0.437074
vn 0.665045 0.605543 -0.437074
vn 0.665045 0.605543 -0.437074
vn 0.469110 -0.125698 -0.874149
vn 0.469110 -0.125698 -0.874149
vn 0.469110 -0.125698 -0.874149
vn 0.469110 -0.125698 -0.874149
vn 0.273175 -0.856937 -0.437074
vn 0.273175 -0.856937 -0.437074
vn 0.273175 -0.856937 -0.437074
vn 0.273175 -0.856937 -0.437074
vn 0.273175 -0.856937 0.437074
vn 0.273175 -0.856937 0.437074
vn 0.273175 -0.856937 0.437074
vn 0.273175 -0.856937 0.437074
vn 0.433970 -0.055647 0.899207
vn 0.433970 -0.055647 0.899207
vn 0.433970 -0.055647 0.899207
vn 0.433970 -0.055647 0.899207
vn 0.665220 0.520286 0.535523
vn 0.665220 0.520286 0.535523
vn 0.665220 0.520286 0.535523
vn 0.665220 0.520286 0.535523
vn 0.711959 0.491146 -0.501886
vn 0.711959 0.491146 -0.501886
vn 0.711959 0.491146 -0.501886
vn 0.711959 0.491146 -0.501886
vn 0.593644 -0.031656 -0.804105
vn 0.593644 -0.031656 -0.804105
vn 0.593644 -0.031656 -0.804105
vn 0.593644 -0.031656 -0.804105
vn 0.272439 -0.915984 -0.294534
vn 0.272439 -0.915984 -0.294534
vn 0.272439 -0.915984 -0.294534
vn 0.272439 -0.915984 -0.294534
vn 0.189084 -0.899622 0.393609
vn 0.189084 -0.899622 0.393609
vn 0.189084 -0.899622 0.393609
vn 0.189084 -0.899622 0.393609
vn -0.293144 0.037183 -0.955345
vn -0.293144 0.037183 -0.955345
vn -0.293144 0.037183 -0.955345
vn -0.293144 0.037183 -0.955345
vn -0.515322 -0.663924 -0.541893
vn -0.515322 -0.663924 -0.541893
vn -0.515322 -0.663924 -0.541893
vn -0.515322 -0.663924 -0.541893
vn -0.536988 -0.660487 0.524786
vn -0.536988 -0.660487 0.524786
vn -0.536988 -0.660487 0.524786
vn -0.536988 -0.660487 0.524786
vn -0.364125 0.018658 0.931163
vn -0.364125 0.018658 0.931163
vn -0.364125 0.018658 0.931163
vn -0.364125 0.018658 0.931163
vn -0.088127 0.918816 0.384722
vn -0.088127 0.918816 0.384722
vn -0.088127 0.918816 0.384722
vn -0.088127 0.918816 0.384722
vn -0.053979 0.897682 -0.437326
vn -0.053979 0.897682 -0.437326
vn -0.053979 0.897682 -0.437326
vn -0.053979 0.897682 -0.437326
vn -0.740773 0.198489 -0.641761
vn -0.740773 0.198489 -0.641761
vn -0.740773 0.198489 -0.641761
vn -0.740773 0.198489 -0.641761
vn -0.884620 -0.338354 -0.320881
vn -0.884620 -0.338354 -0.320881
vn -0.884620 -0.338354 -0.320881
vn -0.884620 -0.338354 -0.320881
vn -0.884620 -0.338354 0.320880
vn -0.884620 -0.338354 0.320880
vn -0.884620 -0.338354 0.320880
vn -0.884620 -0.338354 0.320880
vn -0.740773 0.198490 0.641761
vn -0.740773 0.198490 0.641761
vn -0.740773 0.198490 0.641761
vn -0.740773 0.198490 0.641761
vn -0.596927 0.735333 0.320881
vn -0.596927 0.735333 0.320881
vn -0.596927 0.735333 0.320881
vn -0.596927 0.735333 0.320881
vn -0.596927 0.735333 -0.320880
vn -0.596927 0.735333 -0.320880
vn -0.596927 0.735333 -0.320880
vn -0.596927 0.735333 -0.320880
vn 0.842789 -0.225825 0.488580
vn 0.842789 -0.225825 0.488580
vn 0.842789 -0.225825 0.488580
vn 0.952301 0.182881 0.244291
vn 0.952301 0.182881 0.244291
vn 0.952301 0.182881 0.244291
vn 0.952301 0.182881 -0.244290
vn 0.952301 0.182881 -0.244290
vn 0.952301 0.182881 -0.244290
vn 0.842788 -0.225825 -0.488580
vn 0.842789 -0.225825 -0.488580
vn 0.842789 -0.225825 -0.488580
vn 0.733276 -0.634530 -0.244290
vn 0.733276 -0.634530 -0.244290
vn 0.733276 -0.634530 -0.244290
vn 0.733276 -0.634530 0.244290
vn 0.733276 -0.634530 0.244290
vn 0.733276 -0.634530 0.244290
vn -0.872573 0.233804 -0.428897
vn -0.872573 0.233804 -0.428897
vn -0.872573 0.233804 -0.428897
vn -0.968707 -0.124974 -0.214449
vn -0.968707 -0.124974 -0.214449
vn -0.968707 -0.124974 -0.214449
vn -0.968707 -0.124974 0.214449
vn -0.968707 -0.124974 0.214449
vn -0.968707 -0.124974 0.214449
vn -0.872572 0.233806 0.428898
vn -0.872572 0.233806 0.428898
vn -0.872572 0.233806 0.428898
vn -0.776438 0.592584 0.214450
vn -0.776438 0.592584 0.214450
vn -0.776438 0.592584 0.214450
vn -0.776438 0.592584 -0.214450
vn -0.776438 0.592584 -0.214450
vn -0.776438 0.592584 -0.214450
s off
g egg_geo1
usemtl initialShadingGroup
f 33/39/133 34/40/134 40/41/135 39/42/136
f 34/40/137 35/43/138 41/44/139 40/41/140
f 35/43/141 36/45/142 42/46/143 41/44/144
f 36/45/145 37/47/146 43/48/147 42/46/148
f 37/47/149 38/49/150 44/50/151 43/48/152
f 38/49/153 33/39/154 39/72/155 44/50/156
f 39/72/157 40/70/158 46/74/159 45/51/160
f 40/70/161 41/71/162 47/76/163 46/74/164
f 41/44/165 42/46/166 48/53/167 47/52/168
f 42/46/169 43/48/170 49/54/171 48/53/172
f 43/48/173 44/50/174 50/55/175 49/54/176
f 44/50/177 39/72/178 45/51/179 50/73/180
f 45/51/181 46/74/182 52/75/183 51/78/184
f 46/74/185 47/76/186 53/77/187 52/75/188
f 47/52/189 48/53/190 54/59/191 53/58/192
f 48/53/193 49/54/194 55/60/195 54/59/196
f 49/54/197 50/55/198 56/61/199 55/60/200
f 50/80/201 45/51/202 51/78/203 56/79/204
f 51/57/205 52/56/206 58/62/207 57/63/208
f 52/56/209 53/58/210 59/64/211 58/62/212
f 53/58/213 54/59/214 60/65/215 59/64/216
f 54/59/217 55/60/218 61/66/219 60/65/220
f 55/60/221 56/61/222 62/67/223 61/66/224
f 56/61/225 51/57/226 57/63/227 62/67/228
f 34/40/229 33/39/230 63/68/231
f 35/43/232 34/40/233 63/68/234
f 36/45/235 35/43/236 63/68/237
f 37/47/238 36/45/239 63/68/240
f 38/49/241 37/47/242 63/68/243
f 33/39/244 38/49/245 63/68/246
f 57/63/247 58/62/248 64/69/249
f 58/62/250 59/64/251 64/69/252
f 59/64/253 60/65/254 64/69/255
f 60/65/256 61/66/257 64/69/258
f 61/66/259 62/67/260 64/69/261
f 62/67/262 57/63/263 64/69/264
