# This file uses centimeters as units for non-parametric coordinates.

mtllib eggYolk.mtl
g default
v 2.080343 0.062007 -2.080343
v 0.000000 0.062007 -2.942049
v -2.080343 0.062007 -2.080343
v -2.942049 0.062007 0.000000
v -2.080343 0.062007 2.080343
v 0.000000 0.062007 2.942049
v 2.080343 0.062007 2.080343
v 2.942049 0.062007 0.000000
v 1.921986 0.441300 -1.921986
v 0.000000 0.441300 -2.718099
v -1.921986 0.441300 -1.921986
v -2.718099 0.441300 0.000000
v -1.921986 0.441300 1.921986
v 0.000000 0.441300 2.718099
v 1.921986 0.441300 1.921986
v 2.718099 0.441300 0.000000
v 1.471024 0.762848 -1.471024
v 0.000000 0.762848 -2.080343
v -1.471024 0.762848 -1.471024
v -2.080343 0.762848 0.000000
v -1.471024 0.762848 1.471024
v 0.000000 0.762848 2.080343
v 1.471024 0.762848 1.471024
v 2.080343 0.762848 0.000000
v 0.796113 0.977700 -0.796113
v 0.000000 0.977700 -1.125873
v -0.796113 0.977700 -0.796113
v -1.125873 0.977700 0.000000
v -0.796113 0.977700 0.796113
v 0.000000 0.977700 1.125873
v 0.796113 0.977700 0.796113
v 1.125873 0.977700 0.000000
v 0.000000 1.053146 0.000000
vt 0.498577 0.659518
vt 0.343862 0.723603
vt 0.343862 0.706948
vt 0.486800 0.647742
vt 0.189148 0.659518
vt 0.200925 0.647742
vt 0.125063 0.504804
vt 0.141718 0.504804
vt 0.189148 0.350090
vt 0.200925 0.361867
vt 0.343862 0.286005
vt 0.343862 0.302660
vt 0.498577 0.350090
vt 0.486800 0.361867
vt 0.562661 0.504804
vt 0.546006 0.504804
vt 0.343862 0.659518
vt 0.453262 0.614204
vt 0.234463 0.614204
vt 0.189148 0.504804
vt 0.234463 0.395405
vt 0.343862 0.350090
vt 0.453262 0.395405
vt 0.498577 0.504804
vt 0.343862 0.588535
vt 0.403069 0.564011
vt 0.284656 0.564011
vt 0.260132 0.504804
vt 0.284656 0.445598
vt 0.343862 0.421073
vt 0.403069 0.445598
vt 0.427593 0.504804
vt 0.343862 0.504804
vn 0.335950 0.478881 -0.811055
vn 0.335950 0.478881 -0.811055
vn 0.335950 0.478881 -0.811055
vn 0.335950 0.478881 -0.811055
vn -0.335950 0.478881 -0.811055
vn -0.335950 0.478881 -0.811055
vn -0.335950 0.478881 -0.811055
vn -0.335950 0.478881 -0.811055
vn -0.811055 0.478881 -0.335950
vn -0.811055 0.478881 -0.335950
vn -0.811055 0.478881 -0.335950
vn -0.811055 0.478881 -0.335950
vn -0.811055 0.478881 0.335950
vn -0.811055 0.478881 0.335950
vn -0.811055 0.478881 0.335950
vn -0.811055 0.478881 0.335950
vn -0.335950 0.478881 0.811055
vn -0.335950 0.478881 0.811055
vn -0.335950 0.478881 0.811055
vn -0.335950 0.478881 0.811055
vn 0.335950 0.478881 0.811055
vn 0.335950 0.478881 0.811055
vn 0.335950 0.478881 0.811055
vn 0.335950 0.478881 0.811055
vn 0.811055 0.478881 0.335950
vn 0.811055 0.478881 0.335950
vn 0.811055 0.478881 0.335950
vn 0.811055 0.478881 0.335950
vn 0.811055 0.478881 -0.335950
vn 0.811055 0.478881 -0.335950
vn 0.811055 0.478881 -0.335950
vn 0.811055 0.478881 -0.335950
vn 0.183320 0.877795 -0.442573
vn 0.183320 0.877795 -0.442573
vn 0.183320 0.877795 -0.442573
vn 0.183320 0.877795 -0.442573
vn -0.183320 0.877795 -0.442573
vn -0.183320 0.877795 -0.442573
vn -0.183320 0.877795 -0.442573
vn -0.183320 0.877795 -0.442573
vn -0.442573 0.877795 -0.183320
vn -0.442573 0.877795 -0.183320
vn -0.442573 0.877795 -0.183320
vn -0.442573 0.877795 -0.183320
vn -0.442573 0.877795 0.183320
vn -0.442573 0.877795 0.183320
vn -0.442573 0.877795 0.183320
vn -0.442573 0.877795 0.183320
vn -0.183320 0.877795 0.442573
vn -0.183320 0.877795 0.442573
vn -0.183320 0.877795 0.442573
vn -0.183320 0.877795 0.442573
vn 0.183320 0.877795 0.442573
vn 0.183320 0.877795 0.442573
vn 0.183320 0.877795 0.442573
vn 0.183320 0.877795 0.442573
vn 0.442573 0.877795 0.183320
vn 0.442573 0.877795 0.183320
vn 0.442573 0.877795 0.183320
vn 0.442573 0.877795 0.183320
vn 0.442573 0.877795 -0.183320
vn 0.442573 0.877795 -0.183320
vn 0.442573 0.877795 -0.183320
vn 0.442573 0.877795 -0.183320
vn 0.090590 0.971577 -0.218703
vn 0.090590 0.971577 -0.218703
vn 0.090590 0.971577 -0.218703
vn 0.090590 0.971577 -0.218703
vn -0.090590 0.971577 -0.218703
vn -0.090590 0.971577 -0.218703
vn -0.090590 0.971577 -0.218703
vn -0.090590 0.971577 -0.218703
vn -0.218703 0.971577 -0.090590
vn -0.218703 0.971577 -0.090590
vn -0.218703 0.971577 -0.090590
vn -0.218703 0.971577 -0.090590
vn -0.218703 0.971577 0.090590
vn -0.218703 0.971577 0.090590
vn -0.218703 0.971577 0.090590
vn -0.218703 0.971577 0.090590
vn -0.090590 0.971577 0.218703
vn -0.090590 0.971577 0.218703
vn -0.090590 0.971577 0.218703
vn -0.090590 0.971577 0.218703
vn 0.090590 0.971577 0.218703
vn 0.090590 0.971577 0.218703
vn 0.090590 0.971577 0.218703
vn 0.090590 0.971577 0.218703
vn 0.218703 0.971577 0.090590
vn 0.218703 0.971577 0.090590
vn 0.218703 0.971577 0.090590
vn 0.218703 0.971577 0.090590
vn 0.218703 0.971577 -0.090590
vn 0.218703 0.971577 -0.090590
vn 0.218703 0.971577 -0.090590
vn 0.218703 0.971577 -0.090590
vn 0.027684 0.997380 -0.066835
vn 0.027684 0.997380 -0.066835
vn 0.027684 0.997380 -0.066835
vn -0.027684 0.997380 -0.066835
vn -0.027684 0.997380 -0.066835
vn -0.027684 0.997380 -0.066835
vn -0.066835 0.997380 -0.027684
vn -0.066835 0.997380 -0.027684
vn -0.066835 0.997380 -0.027684
vn -0.066835 0.997380 0.027684
vn -0.066835 0.997380 0.027684
vn -0.066835 0.997380 0.027684
vn -0.027684 0.997380 0.066835
vn -0.027684 0.997380 0.066835
vn -0.027684 0.997380 0.066835
vn 0.027684 0.997380 0.066835
vn 0.027684 0.997380 0.066835
vn 0.027684 0.997380 0.066835
vn 0.066835 0.997380 0.027684
vn 0.066835 0.997380 0.027684
vn 0.066835 0.997380 0.027684
vn 0.066835 0.997380 -0.027684
vn 0.066835 0.997380 -0.027684
vn 0.066835 0.997380 -0.027684
s off
g pSphere1
usemtl initialShadingGroup
f 1/1/1 2/2/2 10/3/3 9/4/4
f 2/2/5 3/5/6 11/6/7 10/3/8
f 3/5/9 4/7/10 12/8/11 11/6/12
f 4/7/13 5/9/14 13/10/15 12/8/16
f 5/9/17 6/11/18 14/12/19 13/10/20
f 6/11/21 7/13/22 15/14/23 14/12/24
f 7/13/25 8/15/26 16/16/27 15/14/28
f 8/15/29 1/1/30 9/4/31 16/16/32
f 9/4/33 10/3/34 18/17/35 17/18/36
f 10/3/37 11/6/38 19/19/39 18/17/40
f 11/6/41 12/8/42 20/20/43 19/19/44
f 12/8/45 13/10/46 21/21/47 20/20/48
f 13/10/49 14/12/50 22/22/51 21/21/52
f 14/12/53 15/14/54 23/23/55 22/22/56
f 15/14/57 16/16/58 24/24/59 23/23/60
f 16/16/61 9/4/62 17/18/63 24/24/64
f 17/18/65 18/17/66 26/25/67 25/26/68
f 18/17/69 19/19/70 27/27/71 26/25/72
f 19/19/73 20/20/74 28/28/75 27/27/76
f 20/20/77 21/21/78 29/29/79 28/28/80
f 21/21/81 22/22/82 30/30/83 29/29/84
f 22/22/85 23/23/86 31/31/87 30/30/88
f 23/23/89 24/24/90 32/32/91 31/31/92
f 24/24/93 17/18/94 25/26/95 32/32/96
f 25/26/97 26/25/98 33/33/99
f 26/25/100 27/27/101 33/33/102
f 27/27/103 28/28/104 33/33/105
f 28/28/106 29/29/107 33/33/108
f 29/29/109 30/30/110 33/33/111
f 30/30/112 31/31/113 33/33/114
f 31/31/115 32/32/116 33/33/117
f 32/32/118 25/26/119 33/33/120
g default
v 3.010102 -0.087346 -3.482791
v 0.000000 -0.087346 -7.739288
v -5.472503 -0.087346 -5.472503
v -7.739288 -0.087346 -0.000000
v -5.370278 -0.087346 8.061973
v 0.000000 -0.087346 7.739288
v 6.451284 -0.087346 6.184360
v 7.739289 -0.087346 0.000000
v 3.010102 0.143049 -3.482791
v 0.000000 0.143049 -7.739288
v -5.472503 0.143049 -5.472503
v -7.739288 0.143049 -0.000000
v -5.370278 0.143049 8.061973
v 0.000000 0.143049 7.739288
v 6.451284 0.143049 6.184360
v 7.739289 0.143049 0.000000
v 0.000000 -0.087346 0.000000
v 0.000000 0.143049 0.000000
vt 0.853463 0.844170
vt 0.764034 0.968046
vt 0.786892 0.477529
vt 0.859249 0.388510
vt 0.601449 0.902076
vt 0.661867 0.444244
vt 0.534105 0.742812
vt 0.593579 0.334283
vt 0.604486 0.508186
vt 0.607437 0.147744
vt 0.764034 0.517577
vt 0.724921 0.115917
vt 0.955698 0.562830
vt 0.905710 0.143854
vt 0.993964 0.742812
vt 0.947819 0.281647
vt 0.764034 0.742812
vt 0.781380 0.297004
vt 0.980391 0.268560
vt 0.884200 0.403957
vt 0.877628 0.074011
vt 0.707679 0.083520
vt 0.555088 0.135994
vt 0.560746 0.325890
vt 0.655832 0.459601
vt 0.821155 0.492731
vt 0.878183 0.116002
vt 0.978903 0.314361
vt 0.932077 0.131274
vt 0.727512 0.061757
vt 0.588503 0.107909
vt 0.531393 0.324822
vt 0.631246 0.441442
vt 0.787423 0.493281
vt 0.871545 0.407818
vn 0.816469 0.000000 -0.577389
vn 0.816469 0.000000 -0.577389
vn 0.816469 0.000000 -0.577389
vn 0.816469 0.000000 -0.577389
vn -0.382683 0.000000 -0.923880
vn -0.382683 0.000000 -0.923880
vn -0.382683 0.000000 -0.923880
vn -0.382683 0.000000 -0.923880
vn -0.923880 0.000000 -0.382683
vn -0.923880 0.000000 -0.382683
vn -0.923880 0.000000 -0.382683
vn -0.923880 0.000000 -0.382683
vn -0.959435 0.000000 0.281930
vn -0.959435 0.000000 0.281930
vn -0.959435 0.000000 0.281930
vn -0.959435 0.000000 0.281930
vn 0.059979 0.000000 0.998200
vn 0.059979 0.000000 0.998200
vn 0.059979 0.000000 0.998200
vn 0.059979 0.000000 0.998200
vn 0.234316 0.000000 0.972160
vn 0.234316 0.000000 0.972160
vn 0.234316 0.000000 0.972160
vn 0.234316 0.000000 0.972160
vn 0.978993 0.000000 0.203893
vn 0.978993 0.000000 0.203893
vn 0.978993 0.000000 0.203893
vn 0.978993 0.000000 0.203893
vn 0.592992 0.000000 -0.805208
vn 0.592992 0.000000 -0.805208
vn 0.592992 0.000000 -0.805208
vn 0.592992 0.000000 -0.805208
vn -0.000000 -1.000000 0.000000
vn -0.000000 -1.000000 0.000000
vn -0.000000 -1.000000 -0.000000
vn 0.000000 -1.000000 0.000000
vn 0.000000 -1.000000 0.000000
vn 0.000000 -1.000000 0.000000
vn -0.000000 -1.000000 0.000000
vn -0.000000 -1.000000 -0.000000
vn 0.000000 -1.000000 -0.000000
vn 0.000000 1.000000 -0.000000
vn 0.000000 1.000000 0.000000
vn 0.000000 1.000000 0.000000
vn 0.000000 1.000000 0.000000
vn 0.000000 1.000000 0.000000
vn 0.000000 1.000000 0.000000
vn 0.000000 1.000000 0.000000
vn 0.000000 1.000000 0.000000
vn 0.000000 1.000000 0.000000
s off
g pCylinder1
usemtl initialShadingGroup
f 34/68/121 35/59/122 43/36/123 42/37/124
f 35/67/125 36/58/126 44/39/127 43/36/128
f 36/66/129 37/57/130 45/41/131 44/39/132
f 37/65/133 38/56/134 46/43/135 45/41/136
f 38/64/137 39/55/138 47/45/139 46/43/140
f 39/63/141 40/54/142 48/60/143 47/45/144
f 40/62/145 41/52/146 49/49/147 48/47/148
f 41/61/149 34/53/150 42/37/151 49/49/152
s 1
f 35/35/153 34/34/154 50/50/155
f 36/38/156 35/35/153 50/50/155
f 37/40/157 36/38/156 50/50/155
f 38/42/158 37/40/157 50/50/155
f 39/44/159 38/42/158 50/50/155
f 40/46/160 39/44/159 50/50/155
f 41/48/161 40/46/160 50/50/155
f 34/34/154 41/48/161 50/50/155
s 2
f 42/37/162 43/36/163 51/51/164
f 43/36/163 44/39/165 51/51/164
f 44/39/165 45/41/166 51/51/164
f 45/41/166 46/43/167 51/51/164
f 46/43/167 47/45/168 51/51/164
f 47/45/168 48/60/169 51/51/164
f 48/47/169 49/49/170 51/51/164
f 49/49/170 42/37/162 51/51/164
