# This file uses centimeters as units for non-parametric coordinates.

mtllib FrontLeftBurner.mtl
g default
v 164.070068 105.599892 -4.521962
v 159.548111 105.599892 -6.395020
v 155.026154 105.599892 -4.521963
v 153.153091 105.599892 -0.000004
v 155.026154 105.599892 4.521955
v 159.548111 105.599892 6.395014
v 164.070068 105.599892 4.521957
v 165.943130 105.599892 -0.000004
v 165.394516 106.540443 -5.846413
v 159.548111 106.540443 -8.268073
v 153.701691 106.540443 -5.846415
v 151.280045 106.540443 -0.000004
v 153.701706 106.540443 5.846405
v 159.548111 106.540443 8.268067
v 165.394516 106.540443 5.846408
v 167.816177 106.540443 -0.000002
v 168.592026 106.930000 -9.043921
v 159.548111 106.930000 -12.790033
v 150.504196 106.930000 -9.043921
v 146.758087 106.930000 -0.000002
v 150.504196 106.930000 9.043915
v 159.548111 106.930000 12.790029
v 168.592026 106.930000 9.043918
v 172.338135 106.930000 -0.000003
v 171.789536 106.540443 -12.241427
v 159.548111 106.540443 -17.311993
v 147.306686 106.540443 -12.241428
v 142.236115 106.540443 -0.000004
v 147.306686 106.540443 12.241421
v 159.548111 106.540443 17.311985
v 171.789536 106.540443 12.241425
v 176.860107 106.540443 -0.000001
v 173.113983 105.599892 -13.565880
v 159.548111 105.599892 -19.185047
v 145.982239 105.599892 -13.565880
v 140.363068 105.599892 -0.000002
v 145.982239 105.599892 13.565874
v 159.548111 105.599892 19.185043
v 173.113983 105.599892 13.565873
v 178.733154 105.599892 -0.000001
v 166.548111 104.159897 0.000001
v 164.497864 104.159897 -4.949748
v 159.548111 104.159897 -6.999997
v 154.598358 104.159897 -4.949747
v 152.548111 104.159897 -0.000000
v 154.598358 104.159897 4.949747
v 159.548111 104.159897 7.000001
v 164.497864 104.159897 4.949748
v 166.548111 107.039894 0.000001
v 164.497864 107.039894 -4.949748
v 159.548111 107.039894 -6.999997
v 154.598358 107.039894 -4.949747
v 152.548111 107.039894 -0.000000
v 154.598358 107.039894 4.949747
v 159.548111 107.039894 7.000001
v 164.497864 107.039894 4.949748
v 159.548111 107.039894 -0.000000
vt 0.649183 0.867260
vt 0.687612 0.883178
vt 0.687612 0.899096
vt 0.637927 0.878516
vt 0.633265 0.828831
vt 0.617347 0.828831
vt 0.649183 0.790402
vt 0.637927 0.779146
vt 0.687612 0.774484
vt 0.687612 0.758566
vt 0.726042 0.790402
vt 0.737297 0.779146
vt 0.741960 0.828831
vt 0.757877 0.828831
vt 0.726042 0.867260
vt 0.737297 0.878516
vt 0.687612 0.937525
vt 0.610754 0.905690
vt 0.578918 0.828831
vt 0.610754 0.751972
vt 0.687612 0.720137
vt 0.764471 0.751972
vt 0.796307 0.828831
vt 0.764471 0.905690
vt 0.687612 0.975955
vt 0.583580 0.932863
vt 0.540489 0.828831
vt 0.583580 0.724799
vt 0.687612 0.681707
vt 0.791645 0.724799
vt 0.834736 0.828831
vt 0.791645 0.932863
vt 0.687612 0.991873
vt 0.572325 0.944119
vt 0.524571 0.828831
vt 0.572325 0.713543
vt 0.687612 0.665789
vt 0.802900 0.713543
vt 0.850654 0.828831
vt 0.802900 0.944119
vt 0.746209 0.012665
vt 0.779600 0.012665
vt 0.779600 0.146232
vt 0.746209 0.146232
vt 0.512466 0.012665
vt 0.545858 0.012665
vt 0.545858 0.146232
vt 0.512466 0.146232
vt 0.579250 0.012665
vt 0.579250 0.146232
vt 0.612642 0.012665
vt 0.612642 0.146232
vt 0.646033 0.012665
vt 0.646033 0.146232
vt 0.679425 0.012665
vt 0.679425 0.146232
vt 0.712817 0.012665
vt 0.712817 0.146232
vt 0.966254 0.169010
vt 0.905577 0.194143
vt 0.905577 0.108333
vt 0.844900 0.169010
vt 0.819768 0.108333
vt 0.844900 0.047657
vt 0.905577 0.022524
vt 0.966254 0.047657
vt 0.991386 0.108333
vn -0.182747 0.878607 0.441195
vn -0.182747 0.878607 0.441195
vn -0.182747 0.878607 0.441195
vn -0.182747 0.878607 0.441195
vn 0.182748 0.878609 0.441190
vn 0.182748 0.878609 0.441190
vn 0.182748 0.878609 0.441190
vn 0.182748 0.878610 0.441190
vn 0.441192 0.878608 0.182749
vn 0.441192 0.878608 0.182749
vn 0.441192 0.878608 0.182749
vn 0.441192 0.878608 0.182749
vn 0.441191 0.878609 -0.182748
vn 0.441191 0.878609 -0.182748
vn 0.441191 0.878609 -0.182748
vn 0.441191 0.878609 -0.182748
vn 0.182747 0.878607 -0.441195
vn 0.182747 0.878607 -0.441195
vn 0.182747 0.878607 -0.441195
vn 0.182747 0.878607 -0.441195
vn -0.182747 0.878609 -0.441192
vn -0.182747 0.878609 -0.441192
vn -0.182747 0.878609 -0.441192
vn -0.182747 0.878609 -0.441192
vn -0.441189 0.878610 -0.182746
vn -0.441189 0.878610 -0.182746
vn -0.441189 0.878610 -0.182746
vn -0.441189 0.878610 -0.182746
vn -0.441193 0.878608 0.182749
vn -0.441193 0.878608 0.182749
vn -0.441193 0.878608 0.182749
vn -0.441193 0.878608 0.182749
vn -0.035529 0.995681 0.085774
vn -0.035529 0.995681 0.085774
vn -0.035529 0.995681 0.085774
vn -0.035529 0.995681 0.085774
vn 0.035529 0.995681 0.085776
vn 0.035529 0.995681 0.085776
vn 0.035529 0.995681 0.085776
vn 0.035529 0.995681 0.085776
vn 0.085776 0.995681 0.035529
vn 0.085776 0.995681 0.035529
vn 0.085776 0.995681 0.035529
vn 0.085776 0.995681 0.035529
vn 0.085776 0.995681 -0.035531
vn 0.085776 0.995681 -0.035531
vn 0.085776 0.995681 -0.035531
vn 0.085776 0.995681 -0.035531
vn 0.035529 0.995681 -0.085774
vn 0.035529 0.995681 -0.085774
vn 0.035529 0.995681 -0.085774
vn 0.035529 0.995681 -0.085774
vn -0.035530 0.995681 -0.085775
vn -0.035530 0.995681 -0.085775
vn -0.035530 0.995681 -0.085775
vn -0.035530 0.995681 -0.085775
vn -0.085775 0.995681 -0.035530
vn -0.085775 0.995681 -0.035530
vn -0.085775 0.995681 -0.035530
vn -0.085775 0.995681 -0.035530
vn -0.085775 0.995681 0.035530
vn -0.085775 0.995681 0.035530
vn -0.085775 0.995681 0.035530
vn -0.085775 0.995681 0.035530
vn 0.035530 0.995681 -0.085777
vn 0.035530 0.995681 -0.085777
vn 0.035530 0.995681 -0.085777
vn 0.035530 0.995681 -0.085777
vn -0.035529 0.995681 -0.085776
vn -0.035529 0.995681 -0.085776
vn -0.035529 0.995681 -0.085776
vn -0.035529 0.995681 -0.085776
vn -0.085776 0.995681 -0.035528
vn -0.085776 0.995681 -0.035528
vn -0.085776 0.995681 -0.035528
vn -0.085776 0.995681 -0.035528
vn -0.085776 0.995681 0.035529
vn -0.085776 0.995681 0.035529
vn -0.085776 0.995681 0.035529
vn -0.085776 0.995681 0.035529
vn -0.035529 0.995681 0.085777
vn -0.035529 0.995681 0.085777
vn -0.035529 0.995681 0.085777
vn -0.035530 0.995681 0.085777
vn 0.035529 0.995681 0.085776
vn 0.035529 0.995681 0.085776
vn 0.035529 0.995681 0.085776
vn 0.035529 0.995681 0.085776
vn 0.085776 0.995681 0.035528
vn 0.085776 0.995681 0.035528
vn 0.085776 0.995681 0.035528
vn 0.085776 0.995681 0.035528
vn 0.085776 0.995681 -0.035529
vn 0.085776 0.995681 -0.035529
vn 0.085776 0.995681 -0.035529
vn 0.085776 0.995681 -0.035529
vn 0.182748 0.878610 -0.441189
vn 0.182748 0.878610 -0.441189
vn 0.182748 0.878610 -0.441189
vn 0.182748 0.878610 -0.441189
vn -0.182748 0.878610 -0.441189
vn -0.182748 0.878610 -0.441189
vn -0.182748 0.878610 -0.441189
vn -0.182748 0.878610 -0.441189
vn -0.441192 0.878608 -0.182750
vn -0.441192 0.878608 -0.182750
vn -0.441192 0.878608 -0.182750
vn -0.441192 0.878608 -0.182750
vn -0.441193 0.878608 0.182749
vn -0.441193 0.878608 0.182749
vn -0.441193 0.878608 0.182749
vn -0.441193 0.878608 0.182749
vn -0.182747 0.878610 0.441188
vn -0.182747 0.878610 0.441188
vn -0.182747 0.878610 0.441188
vn -0.182747 0.878610 0.441188
vn 0.182748 0.878610 0.441189
vn 0.182748 0.878610 0.441189
vn 0.182748 0.878610 0.441189
vn 0.182748 0.878610 0.441189
vn 0.441196 0.878606 0.182751
vn 0.441196 0.878606 0.182751
vn 0.441196 0.878606 0.182751
vn 0.441196 0.878606 0.182751
vn 0.441194 0.878607 -0.182750
vn 0.441194 0.878607 -0.182750
vn 0.441194 0.878607 -0.182750
vn 0.441194 0.878607 -0.182750
vn 0.923880 0.000000 -0.382682
vn 0.923880 0.000000 -0.382682
vn 0.923880 0.000000 -0.382682
vn 0.923880 0.000000 -0.382682
vn 0.382682 0.000000 -0.923880
vn 0.382682 0.000000 -0.923880
vn 0.382682 0.000000 -0.923880
vn 0.382682 0.000000 -0.923880
vn -0.382682 0.000000 -0.923880
vn -0.382682 0.000000 -0.923880
vn -0.382682 0.000000 -0.923880
vn -0.382682 0.000000 -0.923880
vn -0.923880 0.000000 -0.382682
vn -0.923880 0.000000 -0.382682
vn -0.923880 0.000000 -0.382682
vn -0.923880 0.000000 -0.382682
vn -0.923880 0.000000 0.382682
vn -0.923880 0.000000 0.382682
vn -0.923880 0.000000 0.382682
vn -0.923880 0.000000 0.382682
vn -0.382682 0.000000 0.923880
vn -0.382682 0.000000 0.923880
vn -0.382682 0.000000 0.923880
vn -0.382682 0.000000 0.923880
vn 0.382682 0.000000 0.923880
vn 0.382682 0.000000 0.923880
vn 0.382682 0.000000 0.923880
vn 0.382682 0.000000 0.923880
vn 0.923880 0.000000 0.382682
vn 0.923880 0.000000 0.382682
vn 0.923880 0.000000 0.382682
vn 0.923880 0.000000 0.382682
vn 0.000000 1.000000 -0.000000
vn 0.000000 1.000000 0.000002
vn 0.000000 1.000000 0.000000
vn 0.000000 1.000000 0.000000
vn 0.000000 1.000000 0.000002
vn 0.000000 1.000000 0.000000
vn 0.000000 1.000000 -0.000002
vn 0.000000 1.000000 0.000000
vn 0.000000 1.000000 -0.000002
s off
g polySurface1
usemtl aiStandardSurface2SG
f 2/1/1 1/2/2 9/3/3 10/4/4
f 3/5/5 2/1/6 10/4/7 11/6/8
f 4/7/9 3/5/10 11/6/11 12/8/12
f 5/9/13 4/7/14 12/8/15 13/10/16
f 6/11/17 5/9/18 13/10/19 14/12/20
f 7/13/21 6/11/22 14/12/23 15/14/24
f 8/15/25 7/13/26 15/14/27 16/16/28
f 1/2/29 8/15/30 16/16/31 9/3/32
f 10/4/33 9/3/34 17/17/35 18/18/36
f 11/6/37 10/4/38 18/18/39 19/19/40
f 12/8/41 11/6/42 19/19/43 20/20/44
f 13/10/45 12/8/46 20/20/47 21/21/48
f 14/12/49 13/10/50 21/21/51 22/22/52
f 15/14/53 14/12/54 22/22/55 23/23/56
f 16/16/57 15/14/58 23/23/59 24/24/60
f 9/3/61 16/16/62 24/24/63 17/17/64
f 18/18/65 17/17/66 25/25/67 26/26/68
f 19/19/69 18/18/70 26/26/71 27/27/72
f 20/20/73 19/19/74 27/27/75 28/28/76
f 21/21/77 20/20/78 28/28/79 29/29/80
f 22/22/81 21/21/82 29/29/83 30/30/84
f 23/23/85 22/22/86 30/30/87 31/31/88
f 24/24/89 23/23/90 31/31/91 32/32/92
f 17/17/93 24/24/94 32/32/95 25/25/96
f 26/26/97 25/25/98 33/33/99 34/34/100
f 27/27/101 26/26/102 34/34/103 35/35/104
f 28/28/105 27/27/106 35/35/107 36/36/108
f 29/29/109 28/28/110 36/36/111 37/37/112
f 30/30/113 29/29/114 37/37/115 38/38/116
f 31/31/117 30/30/118 38/38/119 39/39/120
f 32/32/121 31/31/122 39/39/123 40/40/124
f 25/25/125 32/32/126 40/40/127 33/33/128
f 41/41/129 42/42/130 50/43/131 49/44/132
f 42/45/133 43/46/134 51/47/135 50/48/136
f 43/46/137 44/49/138 52/50/139 51/47/140
f 44/49/141 45/51/142 53/52/143 52/50/144
f 45/51/145 46/53/146 54/54/147 53/52/148
f 46/53/149 47/55/150 55/56/151 54/54/152
f 47/55/153 48/57/154 56/58/155 55/56/156
f 48/57/157 41/41/158 49/44/159 56/58/160
s 1
f 49/59/161 50/60/162 57/61/163
f 50/60/162 51/62/164 57/61/163
f 51/62/164 52/63/165 57/61/163
f 52/63/165 53/64/166 57/61/163
f 53/64/166 54/65/167 57/61/163
f 54/65/167 55/66/168 57/61/163
f 55/66/168 56/67/169 57/61/163
f 56/67/169 49/59/161 57/61/163
