# This file uses centimeters as units for non-parametric coordinates.

mtllib FrontRightBurner.mtl
g default
v 32.449747 108.499893 22.550255
v 27.500000 108.499893 20.500000
v 22.550255 108.499893 22.550255
v 20.500000 108.499893 27.500000
v 22.550255 108.499893 32.449747
v 27.500000 108.499893 34.500000
v 32.449749 108.499893 32.449749
v 34.500000 108.499893 27.500000
v 32.449747 111.499893 22.550255
v 27.500000 111.499893 20.500000
v 22.550255 111.499893 22.550255
v 20.500000 111.499893 27.500000
v 22.550255 111.499893 32.449747
v 27.500000 111.499893 34.500000
v 32.449749 111.499893 32.449749
v 34.500000 111.499893 27.500000
v 27.500000 111.499893 27.500000
vt 0.905577 0.194143
vt 0.966254 0.169010
vt 0.844900 0.169010
vt 0.819768 0.108333
vt 0.844900 0.047657
vt 0.905577 0.022524
vt 0.966254 0.047657
vt 0.991386 0.108333
vt 0.905577 0.108333
vt 0.512467 0.012665
vt 0.512467 0.146232
vt 0.746208 0.146232
vt 0.545858 0.012665
vt 0.545858 0.146232
vt 0.579250 0.012665
vt 0.579250 0.146232
vt 0.612642 0.012665
vt 0.612642 0.146232
vt 0.646033 0.012665
vt 0.646033 0.146232
vt 0.679425 0.012665
vt 0.679425 0.146232
vt 0.712817 0.012665
vt 0.712817 0.146232
vt 0.746208 0.012665
vt 0.779600 0.012665
vt 0.779600 0.146232
vn 0.382684 0.000000 -0.923879
vn 0.382684 0.000000 -0.923879
vn 0.382684 0.000000 -0.923879
vn 0.382684 0.000000 -0.923879
vn -0.382684 0.000000 -0.923879
vn -0.382684 0.000000 -0.923879
vn -0.382684 0.000000 -0.923879
vn -0.382684 0.000000 -0.923879
vn -0.923879 0.000000 -0.382684
vn -0.923879 0.000000 -0.382684
vn -0.923879 0.000000 -0.382684
vn -0.923879 0.000000 -0.382684
vn -0.923879 0.000000 0.382684
vn -0.923879 0.000000 0.382684
vn -0.923879 0.000000 0.382684
vn -0.923879 0.000000 0.382684
vn -0.382683 0.000000 0.923880
vn -0.382683 0.000000 0.923880
vn -0.382683 0.000000 0.923880
vn -0.382683 0.000000 0.923880
vn 0.382683 0.000000 0.923880
vn 0.382683 0.000000 0.923880
vn 0.382683 0.000000 0.923880
vn 0.382683 0.000000 0.923880
vn 0.923880 0.000000 0.382683
vn 0.923880 0.000000 0.382683
vn 0.923880 0.000000 0.382683
vn 0.923880 0.000000 0.382683
vn 0.923880 0.000000 -0.382684
vn 0.923880 0.000000 -0.382684
vn 0.923880 0.000000 -0.382684
vn 0.923880 0.000000 -0.382684
vn 0.000000 1.000000 0.000000
vn 0.000000 1.000000 0.000000
vn 0.000000 1.000000 0.000000
vn 0.000000 1.000000 0.000000
vn 0.000000 1.000000 0.000000
vn 0.000000 1.000000 0.000000
vn 0.000000 1.000000 0.000000
vn 0.000000 1.000000 0.000000
vn 0.000000 1.000000 0.000000
s off
g Front_Right_Burner_Inner_Element_geo Front_Right_Burner_grp Stove_grp
usemtl initialShadingGroup
f 1/25/1 2/26/2 10/27/3 9/12/4
f 2/10/5 3/13/6 11/14/7 10/11/8
f 3/13/9 4/15/10 12/16/11 11/14/12
f 4/15/13 5/17/14 13/18/15 12/16/16
f 5/17/17 6/19/18 14/20/19 13/18/20
f 6/19/21 7/21/22 15/22/23 14/20/24
f 7/21/25 8/23/26 16/24/27 15/22/28
f 8/23/29 1/25/30 9/12/31 16/24/32
s 1
f 9/2/33 10/1/34 17/9/35
f 10/1/34 11/3/36 17/9/35
f 11/3/36 12/4/37 17/9/35
f 12/4/37 13/5/38 17/9/35
f 13/5/38 14/6/39 17/9/35
f 14/6/39 15/7/40 17/9/35
f 15/7/40 16/8/41 17/9/35
f 16/8/41 9/2/33 17/9/35
g default
v 27.500004 109.999893 21.104980
v 22.978043 109.999893 22.978039
v 21.104988 109.999893 27.499996
v 22.978043 109.999893 32.021957
v 27.500004 109.999893 33.895012
v 32.021961 109.999893 32.021957
v 33.895020 109.999893 27.499998
v 32.021961 109.999893 22.978037
v 27.500004 110.979630 19.231924
v 21.653595 110.979630 21.653587
v 19.231930 110.979630 27.499996
v 21.653595 110.979630 33.346405
v 27.500004 110.979630 35.768066
v 33.346413 110.979630 33.346405
v 35.768074 110.979630 27.499998
v 33.346413 110.979630 21.653587
v 27.500004 111.385422 14.709965
v 18.456085 111.385422 18.456079
v 14.709972 111.385422 27.499996
v 18.456085 111.385422 36.543915
v 27.500004 111.385422 40.290028
v 36.543922 111.385422 36.543915
v 40.290039 111.385422 27.499998
v 36.543922 111.385422 18.456078
v 27.500004 110.979630 10.188007
v 15.258579 110.979630 15.258572
v 10.188015 110.979630 27.499996
v 15.258579 110.979630 39.741421
v 27.500004 110.979630 44.811985
v 39.741428 110.979630 39.741421
v 44.811996 110.979630 27.499998
v 39.741432 110.979630 15.258572
v 27.500004 109.999893 8.314949
v 13.934128 109.999893 13.934120
v 8.314953 109.999893 27.499998
v 13.934128 109.999893 41.065872
v 27.500004 109.999893 46.685043
v 41.065880 109.999893 41.065872
v 46.685051 109.999893 27.499996
v 41.065880 109.999893 13.934120
vt 0.649183 0.867260
vt 0.687612 0.883178
vt 0.687612 0.899096
vt 0.637927 0.878516
vt 0.633265 0.828831
vt 0.617347 0.828831
vt 0.649183 0.790402
vt 0.637927 0.779146
vt 0.687612 0.774484
vt 0.687612 0.758566
vt 0.726042 0.790402
vt 0.737297 0.779146
vt 0.741960 0.828831
vt 0.757877 0.828831
vt 0.726042 0.867260
vt 0.737297 0.878516
vt 0.687612 0.937525
vt 0.610754 0.905689
vt 0.578918 0.828831
vt 0.610754 0.751972
vt 0.687612 0.720137
vt 0.764471 0.751972
vt 0.796306 0.828831
vt 0.764471 0.905689
vt 0.687612 0.975954
vt 0.583580 0.932863
vt 0.540489 0.828831
vt 0.583580 0.724799
vt 0.687612 0.681707
vt 0.791644 0.724799
vt 0.834736 0.828831
vt 0.791644 0.932863
vt 0.687612 0.991873
vt 0.572325 0.944119
vt 0.524571 0.828831
vt 0.572325 0.713543
vt 0.687612 0.665789
vt 0.802900 0.713543
vt 0.850654 0.828831
vt 0.802900 0.944119
vn 0.188542 0.870210 0.455178
vn 0.188542 0.870210 0.455178
vn 0.188542 0.870210 0.455178
vn 0.188542 0.870210 0.455178
vn 0.455179 0.870209 0.188541
vn 0.455179 0.870209 0.188541
vn 0.455179 0.870209 0.188541
vn 0.455179 0.870209 0.188541
vn 0.455179 0.870209 -0.188541
vn 0.455179 0.870209 -0.188541
vn 0.455179 0.870209 -0.188541
vn 0.455179 0.870209 -0.188541
vn 0.188542 0.870210 -0.455177
vn 0.188542 0.870210 -0.455177
vn 0.188542 0.870210 -0.455177
vn 0.188542 0.870210 -0.455177
vn -0.188541 0.870209 -0.455179
vn -0.188541 0.870209 -0.455179
vn -0.188541 0.870209 -0.455179
vn -0.188541 0.870209 -0.455179
vn -0.455179 0.870209 -0.188543
vn -0.455179 0.870209 -0.188543
vn -0.455179 0.870209 -0.188543
vn -0.455179 0.870209 -0.188543
vn -0.455179 0.870210 0.188542
vn -0.455179 0.870210 0.188542
vn -0.455179 0.870210 0.188542
vn -0.455179 0.870210 0.188542
vn -0.188542 0.870210 0.455177
vn -0.188542 0.870210 0.455177
vn -0.188542 0.870211 0.455177
vn -0.188542 0.870210 0.455177
vn 0.036997 0.995316 0.089319
vn 0.036997 0.995316 0.089319
vn 0.036997 0.995316 0.089319
vn 0.036997 0.995316 0.089319
vn 0.089318 0.995316 0.036997
vn 0.089318 0.995316 0.036997
vn 0.089318 0.995316 0.036997
vn 0.089318 0.995316 0.036997
vn 0.089318 0.995316 -0.036997
vn 0.089318 0.995316 -0.036997
vn 0.089318 0.995316 -0.036997
vn 0.089318 0.995316 -0.036997
vn 0.036997 0.995316 -0.089319
vn 0.036997 0.995316 -0.089319
vn 0.036997 0.995316 -0.089319
vn 0.036997 0.995316 -0.089319
vn -0.036997 0.995316 -0.089319
vn -0.036997 0.995316 -0.089319
vn -0.036997 0.995316 -0.089319
vn -0.036997 0.995316 -0.089319
vn -0.089318 0.995316 -0.036996
vn -0.089318 0.995316 -0.036996
vn -0.089318 0.995316 -0.036996
vn -0.089318 0.995316 -0.036996
vn -0.089318 0.995316 0.036997
vn -0.089318 0.995316 0.036997
vn -0.089318 0.995316 0.036997
vn -0.089318 0.995316 0.036997
vn -0.036997 0.995316 0.089319
vn -0.036997 0.995316 0.089319
vn -0.036997 0.995316 0.089319
vn -0.036997 0.995316 0.089319
vn -0.036997 0.995316 -0.089319
vn -0.036997 0.995316 -0.089319
vn -0.036997 0.995316 -0.089319
vn -0.036997 0.995316 -0.089319
vn -0.089318 0.995316 -0.036996
vn -0.089318 0.995316 -0.036996
vn -0.089318 0.995316 -0.036996
vn -0.089318 0.995316 -0.036996
vn -0.089318 0.995316 0.036997
vn -0.089318 0.995316 0.036997
vn -0.089318 0.995316 0.036997
vn -0.089318 0.995316 0.036997
vn -0.036997 0.995316 0.089318
vn -0.036997 0.995316 0.089318
vn -0.036997 0.995316 0.089318
vn -0.036997 0.995316 0.089318
vn 0.036997 0.995316 0.089319
vn 0.036997 0.995316 0.089319
vn 0.036997 0.995316 0.089319
vn 0.036997 0.995316 0.089319
vn 0.089318 0.995316 0.036996
vn 0.089318 0.995316 0.036996
vn 0.089318 0.995316 0.036996
vn 0.089318 0.995316 0.036996
vn 0.089318 0.995316 -0.036996
vn 0.089318 0.995316 -0.036996
vn 0.089318 0.995316 -0.036996
vn 0.089318 0.995316 -0.036996
vn 0.036997 0.995316 -0.089318
vn 0.036997 0.995316 -0.089318
vn 0.036997 0.995316 -0.089318
vn 0.036997 0.995316 -0.089318
vn -0.188541 0.870210 -0.455178
vn -0.188541 0.870210 -0.455178
vn -0.188541 0.870210 -0.455178
vn -0.188541 0.870210 -0.455178
vn -0.455178 0.870209 -0.188543
vn -0.455178 0.870210 -0.188543
vn -0.455178 0.870210 -0.188543
vn -0.455178 0.870210 -0.188543
vn -0.455178 0.870209 0.188543
vn -0.455178 0.870209 0.188543
vn -0.455178 0.870209 0.188543
vn -0.455178 0.870209 0.188543
vn -0.188541 0.870211 0.455176
vn -0.188541 0.870211 0.455176
vn -0.188541 0.870211 0.455176
vn -0.188541 0.870211 0.455176
vn 0.188541 0.870210 0.455178
vn 0.188541 0.870210 0.455178
vn 0.188541 0.870210 0.455178
vn 0.188541 0.870210 0.455178
vn 0.455179 0.870209 0.188543
vn 0.455179 0.870209 0.188543
vn 0.455180 0.870209 0.188543
vn 0.455179 0.870209 0.188543
vn 0.455180 0.870209 -0.188544
vn 0.455180 0.870209 -0.188544
vn 0.455180 0.870209 -0.188544
vn 0.455180 0.870209 -0.188544
vn 0.188541 0.870209 -0.455180
vn 0.188541 0.870209 -0.455180
vn 0.188541 0.870209 -0.455180
vn 0.188541 0.870209 -0.455180
s off
g Front_Right_Burner_grp Stove_grp Front_Right_Burner_Outer_Element_geo
usemtl initialShadingGroup
f 19/28/42 18/29/43 26/30/44 27/31/45
f 20/32/46 19/28/47 27/31/48 28/33/49
f 21/34/50 20/32/51 28/33/52 29/35/53
f 22/36/54 21/34/55 29/35/56 30/37/57
f 23/38/58 22/36/59 30/37/60 31/39/61
f 24/40/62 23/38/63 31/39/64 32/41/65
f 25/42/66 24/40/67 32/41/68 33/43/69
f 18/29/70 25/42/71 33/43/72 26/30/73
f 27/31/74 26/30/75 34/44/76 35/45/77
f 28/33/78 27/31/79 35/45/80 36/46/81
f 29/35/82 28/33/83 36/46/84 37/47/85
f 30/37/86 29/35/87 37/47/88 38/48/89
f 31/39/90 30/37/91 38/48/92 39/49/93
f 32/41/94 31/39/95 39/49/96 40/50/97
f 33/43/98 32/41/99 40/50/100 41/51/101
f 26/30/102 33/43/103 41/51/104 34/44/105
f 35/45/106 34/44/107 42/52/108 43/53/109
f 36/46/110 35/45/111 43/53/112 44/54/113
f 37/47/114 36/46/115 44/54/116 45/55/117
f 38/48/118 37/47/119 45/55/120 46/56/121
f 39/49/122 38/48/123 46/56/124 47/57/125
f 40/50/126 39/49/127 47/57/128 48/58/129
f 41/51/130 40/50/131 48/58/132 49/59/133
f 34/44/134 41/51/135 49/59/136 42/52/137
f 43/53/138 42/52/139 50/60/140 51/61/141
f 44/54/142 43/53/143 51/61/144 52/62/145
f 45/55/146 44/54/147 52/62/148 53/63/149
f 46/56/150 45/55/151 53/63/152 54/64/153
f 47/57/154 46/56/155 54/64/156 55/65/157
f 48/58/158 47/57/159 55/65/160 56/66/161
f 49/59/162 48/58/163 56/66/164 57/67/165
f 42/52/166 49/59/167 57/67/168 50/60/169
