# This file uses centimeters as units for non-parametric coordinates.

mtllib FrontRightBurner.mtl
g default
v 205.438980 104.159897 38.890873
v 203.388733 104.159897 33.941124
v 198.438980 104.159897 31.890875
v 193.489227 104.159897 33.941124
v 191.438980 104.159897 38.890873
v 193.489227 104.159897 43.840622
v 198.438980 104.159897 45.890873
v 203.388733 104.159897 43.840622
v 205.438980 107.039894 38.890873
v 203.388733 107.039894 33.941124
v 198.438980 107.039894 31.890875
v 193.489227 107.039894 33.941124
v 191.438980 107.039894 38.890873
v 193.489227 107.039894 43.840622
v 198.438980 107.039894 45.890873
v 203.388733 107.039894 43.840622
v 198.438980 107.039894 38.890873
v 202.960938 105.599892 34.368912
v 198.438980 105.599892 32.495857
v 193.917023 105.599892 34.368912
v 192.043961 105.599892 38.890869
v 193.917023 105.599892 43.412830
v 198.438980 105.599892 45.285889
v 202.960938 105.599892 43.412834
v 204.834000 105.599892 38.890869
v 204.285400 106.540443 33.044464
v 198.438980 106.540443 30.622803
v 192.592575 106.540443 33.044460
v 190.170914 106.540443 38.890869
v 192.592575 106.540443 44.737282
v 198.438980 106.540443 47.158943
v 204.285400 106.540443 44.737282
v 206.707062 106.540443 38.890873
v 207.482910 106.930000 29.846954
v 198.438980 106.930000 26.100842
v 189.395065 106.930000 29.846954
v 185.648956 106.930000 38.890873
v 189.395065 106.930000 47.934792
v 198.438980 106.930000 51.680904
v 207.482910 106.930000 47.934792
v 211.229019 106.930000 38.890869
v 210.680405 106.540443 26.649448
v 198.438980 106.540443 21.578884
v 186.197556 106.540443 26.649446
v 181.126999 106.540443 38.890873
v 186.197556 106.540443 51.132294
v 198.438980 106.540443 56.202858
v 210.680420 106.540443 51.132301
v 215.750977 106.540443 38.890877
v 212.004868 105.599892 25.324995
v 198.438980 105.599892 19.705826
v 184.873108 105.599892 25.324993
v 179.253937 105.599892 38.890873
v 184.873108 105.599892 52.456749
v 198.438980 105.599892 58.075920
v 212.004868 105.599892 52.456749
v 217.624023 105.599892 38.890873
vt 0.746208 0.012665
vt 0.779600 0.012665
vt 0.779600 0.146232
vt 0.746208 0.146232
vt 0.512467 0.012665
vt 0.545858 0.012665
vt 0.545858 0.146232
vt 0.512467 0.146232
vt 0.579250 0.012665
vt 0.579250 0.146232
vt 0.612642 0.012665
vt 0.612642 0.146232
vt 0.646033 0.012665
vt 0.646033 0.146232
vt 0.679425 0.012665
vt 0.679425 0.146232
vt 0.712817 0.012665
vt 0.712817 0.146232
vt 0.966254 0.169010
vt 0.905577 0.194143
vt 0.905577 0.108333
vt 0.844900 0.169010
vt 0.819768 0.108333
vt 0.844900 0.047657
vt 0.905577 0.022524
vt 0.966254 0.047657
vt 0.991386 0.108333
vt 0.649183 0.867260
vt 0.687612 0.883178
vt 0.687612 0.899096
vt 0.637927 0.878516
vt 0.633265 0.828831
vt 0.617347 0.828831
vt 0.649183 0.790402
vt 0.637927 0.779146
vt 0.687612 0.774484
vt 0.687612 0.758566
vt 0.726042 0.790402
vt 0.737297 0.779146
vt 0.741960 0.828831
vt 0.757877 0.828831
vt 0.726042 0.867260
vt 0.737297 0.878516
vt 0.687612 0.937525
vt 0.610754 0.905689
vt 0.578918 0.828831
vt 0.610754 0.751972
vt 0.687612 0.720137
vt 0.764471 0.751972
vt 0.796306 0.828831
vt 0.764471 0.905689
vt 0.687612 0.975954
vt 0.583580 0.932863
vt 0.540489 0.828831
vt 0.583580 0.724799
vt 0.687612 0.681707
vt 0.791644 0.724799
vt 0.834736 0.828831
vt 0.791644 0.932863
vt 0.687612 0.991873
vt 0.572325 0.944119
vt 0.524571 0.828831
vt 0.572325 0.713543
vt 0.687612 0.665789
vt 0.802900 0.713543
vt 0.850654 0.828831
vt 0.802900 0.944119
vn 0.923880 0.000000 -0.382682
vn 0.923880 0.000000 -0.382682
vn 0.923880 0.000000 -0.382682
vn 0.923880 0.000000 -0.382682
vn 0.382682 0.000000 -0.923880
vn 0.382682 0.000000 -0.923880
vn 0.382682 0.000000 -0.923880
vn 0.382682 0.000000 -0.923880
vn -0.382682 0.000000 -0.923880
vn -0.382682 0.000000 -0.923880
vn -0.382682 0.000000 -0.923880
vn -0.382682 0.000000 -0.923880
vn -0.923880 0.000000 -0.382682
vn -0.923880 0.000000 -0.382682
vn -0.923880 0.000000 -0.382682
vn -0.923880 0.000000 -0.382682
vn -0.923880 0.000000 0.382682
vn -0.923880 0.000000 0.382682
vn -0.923880 0.000000 0.382682
vn -0.923880 0.000000 0.382682
vn -0.382682 0.000000 0.923880
vn -0.382682 0.000000 0.923880
vn -0.382682 0.000000 0.923880
vn -0.382682 0.000000 0.923880
vn 0.382682 0.000000 0.923880
vn 0.382682 0.000000 0.923880
vn 0.382682 0.000000 0.923880
vn 0.382682 0.000000 0.923880
vn 0.923880 0.000000 0.382682
vn 0.923880 0.000000 0.382682
vn 0.923880 0.000000 0.382682
vn 0.923880 0.000000 0.382682
vn 0.000000 1.000000 0.000000
vn 0.000000 1.000000 0.000002
vn 0.000000 1.000000 0.000000
vn 0.000000 1.000000 0.000000
vn 0.000000 1.000000 0.000002
vn 0.000000 1.000000 0.000000
vn 0.000000 1.000000 -0.000002
vn 0.000000 1.000000 0.000000
vn 0.000000 1.000000 -0.000002
vn -0.182747 0.878610 0.441189
vn -0.182747 0.878610 0.441190
vn -0.182747 0.878610 0.441190
vn -0.182747 0.878610 0.441190
vn 0.182747 0.878609 0.441191
vn 0.182747 0.878609 0.441191
vn 0.182747 0.878609 0.441191
vn 0.182747 0.878609 0.441191
vn 0.441190 0.878610 0.182746
vn 0.441190 0.878610 0.182746
vn 0.441190 0.878610 0.182746
vn 0.441190 0.878610 0.182746
vn 0.441190 0.878609 -0.182748
vn 0.441190 0.878609 -0.182748
vn 0.441190 0.878609 -0.182748
vn 0.441190 0.878609 -0.182748
vn 0.182747 0.878607 -0.441195
vn 0.182747 0.878607 -0.441195
vn 0.182747 0.878607 -0.441195
vn 0.182747 0.878607 -0.441195
vn -0.182747 0.878610 -0.441188
vn -0.182747 0.878610 -0.441188
vn -0.182747 0.878610 -0.441188
vn -0.182747 0.878610 -0.441188
vn -0.441188 0.878611 -0.182747
vn -0.441188 0.878611 -0.182747
vn -0.441188 0.878611 -0.182747
vn -0.441188 0.878611 -0.182747
vn -0.441187 0.878611 0.182746
vn -0.441187 0.878611 0.182746
vn -0.441188 0.878611 0.182746
vn -0.441187 0.878611 0.182746
vn -0.035529 0.995681 0.085776
vn -0.035529 0.995681 0.085776
vn -0.035529 0.995681 0.085776
vn -0.035529 0.995681 0.085776
vn 0.035529 0.995681 0.085774
vn 0.035529 0.995681 0.085774
vn 0.035529 0.995681 0.085774
vn 0.035529 0.995681 0.085774
vn 0.085776 0.995681 0.035530
vn 0.085776 0.995681 0.035530
vn 0.085776 0.995681 0.035530
vn 0.085776 0.995681 0.035530
vn 0.085776 0.995681 -0.035531
vn 0.085776 0.995681 -0.035531
vn 0.085776 0.995681 -0.035531
vn 0.085776 0.995681 -0.035531
vn 0.035529 0.995681 -0.085774
vn 0.035529 0.995681 -0.085774
vn 0.035529 0.995681 -0.085774
vn 0.035529 0.995681 -0.085774
vn -0.035529 0.995681 -0.085776
vn -0.035529 0.995681 -0.085776
vn -0.035529 0.995681 -0.085776
vn -0.035529 0.995681 -0.085776
vn -0.085776 0.995681 -0.035530
vn -0.085776 0.995681 -0.035530
vn -0.085776 0.995681 -0.035530
vn -0.085776 0.995681 -0.035530
vn -0.085776 0.995681 0.035531
vn -0.085776 0.995681 0.035531
vn -0.085776 0.995681 0.035531
vn -0.085776 0.995681 0.035531
vn 0.035529 0.995681 -0.085777
vn 0.035529 0.995681 -0.085777
vn 0.035529 0.995681 -0.085777
vn 0.035530 0.995681 -0.085777
vn -0.035529 0.995681 -0.085776
vn -0.035529 0.995681 -0.085776
vn -0.035529 0.995681 -0.085776
vn -0.035529 0.995681 -0.085776
vn -0.085776 0.995681 -0.035529
vn -0.085776 0.995681 -0.035529
vn -0.085776 0.995681 -0.035529
vn -0.085776 0.995681 -0.035529
vn -0.085776 0.995681 0.035529
vn -0.085776 0.995681 0.035529
vn -0.085776 0.995681 0.035529
vn -0.085776 0.995681 0.035529
vn -0.035529 0.995681 0.085777
vn -0.035529 0.995681 0.085777
vn -0.035529 0.995681 0.085777
vn -0.035529 0.995681 0.085777
vn 0.035529 0.995681 0.085777
vn 0.035529 0.995681 0.085777
vn 0.035529 0.995681 0.085777
vn 0.035529 0.995681 0.085777
vn 0.085775 0.995681 0.035529
vn 0.085775 0.995681 0.035529
vn 0.085775 0.995681 0.035529
vn 0.085775 0.995681 0.035529
vn 0.085776 0.995681 -0.035529
vn 0.085776 0.995681 -0.035529
vn 0.085776 0.995681 -0.035529
vn 0.085776 0.995681 -0.035529
vn 0.182747 0.878611 -0.441188
vn 0.182747 0.878611 -0.441188
vn 0.182747 0.878611 -0.441188
vn 0.182747 0.878611 -0.441188
vn -0.182748 0.878609 -0.441190
vn -0.182748 0.878609 -0.441190
vn -0.182748 0.878609 -0.441190
vn -0.182748 0.878609 -0.441190
vn -0.441189 0.878610 -0.182747
vn -0.441189 0.878610 -0.182747
vn -0.441189 0.878610 -0.182747
vn -0.441189 0.878610 -0.182747
vn -0.441191 0.878609 0.182749
vn -0.441191 0.878609 0.182749
vn -0.441191 0.878609 0.182749
vn -0.441191 0.878609 0.182749
vn -0.182748 0.878610 0.441190
vn -0.182748 0.878610 0.441190
vn -0.182748 0.878610 0.441190
vn -0.182748 0.878610 0.441190
vn 0.182748 0.878609 0.441190
vn 0.182748 0.878609 0.441190
vn 0.182748 0.878609 0.441190
vn 0.182748 0.878609 0.441190
vn 0.441194 0.878607 0.182748
vn 0.441194 0.878607 0.182748
vn 0.441194 0.878607 0.182748
vn 0.441194 0.878607 0.182748
vn 0.441191 0.878609 -0.182747
vn 0.441191 0.878609 -0.182747
vn 0.441191 0.878609 -0.182747
vn 0.441191 0.878609 -0.182747
s off
g polySurface15
usemtl aiStandardSurface2SG
f 1/1/1 2/2/2 10/3/3 9/4/4
f 2/5/5 3/6/6 11/7/7 10/8/8
f 3/6/9 4/9/10 12/10/11 11/7/12
f 4/9/13 5/11/14 13/12/15 12/10/16
f 5/11/17 6/13/18 14/14/19 13/12/20
f 6/13/21 7/15/22 15/16/23 14/14/24
f 7/15/25 8/17/26 16/18/27 15/16/28
f 8/17/29 1/1/30 9/4/31 16/18/32
s 1
f 9/19/33 10/20/34 17/21/35
f 10/20/34 11/22/36 17/21/35
f 11/22/36 12/23/37 17/21/35
f 12/23/37 13/24/38 17/21/35
f 13/24/38 14/25/39 17/21/35
f 14/25/39 15/26/40 17/21/35
f 15/26/40 16/27/41 17/21/35
f 16/27/41 9/19/33 17/21/35
s off
f 19/28/42 18/29/43 26/30/44 27/31/45
f 20/32/46 19/28/47 27/31/48 28/33/49
f 21/34/50 20/32/51 28/33/52 29/35/53
f 22/36/54 21/34/55 29/35/56 30/37/57
f 23/38/58 22/36/59 30/37/60 31/39/61
f 24/40/62 23/38/63 31/39/64 32/41/65
f 25/42/66 24/40/67 32/41/68 33/43/69
f 18/29/70 25/42/71 33/43/72 26/30/73
f 27/31/74 26/30/75 34/44/76 35/45/77
f 28/33/78 27/31/79 35/45/80 36/46/81
f 29/35/82 28/33/83 36/46/84 37/47/85
f 30/37/86 29/35/87 37/47/88 38/48/89
f 31/39/90 30/37/91 38/48/92 39/49/93
f 32/41/94 31/39/95 39/49/96 40/50/97
f 33/43/98 32/41/99 40/50/100 41/51/101
f 26/30/102 33/43/103 41/51/104 34/44/105
f 35/45/106 34/44/107 42/52/108 43/53/109
f 36/46/110 35/45/111 43/53/112 44/54/113
f 37/47/114 36/46/115 44/54/116 45/55/117
f 38/48/118 37/47/119 45/55/120 46/56/121
f 39/49/122 38/48/123 46/56/124 47/57/125
f 40/50/126 39/49/127 47/57/128 48/58/129
f 41/51/130 40/50/131 48/58/132 49/59/133
f 34/44/134 41/51/135 49/59/136 42/52/137
f 43/53/138 42/52/139 50/60/140 51/61/141
f 44/54/142 43/53/143 51/61/144 52/62/145
f 45/55/146 44/54/147 52/62/148 53/63/149
f 46/56/150 45/55/151 53/63/152 54/64/153
f 47/57/154 46/56/155 54/64/156 55/65/157
f 48/58/158 47/57/159 55/65/160 56/66/161
f 49/59/162 48/58/163 56/66/164 57/67/165
f 42/52/166 49/59/167 57/67/168 50/60/169
