# This file uses centimeters as units for non-parametric coordinates.

mtllib mushroom.mtl
g default
v 0.500000 -0.248321 -0.866025
v -0.500000 -0.248321 -0.866026
v -1.000000 -0.248321 -0.000000
v -0.500000 -0.248321 0.866025
v 0.500000 -0.248321 0.866025
v 1.000000 -0.248321 0.000000
v 0.500000 1.751679 -0.866025
v -0.500000 1.751679 -0.866026
v -1.000000 1.751679 -0.000000
v -0.500000 1.751679 0.866025
v 0.500000 1.751679 0.866025
v 1.000000 1.751679 0.000000
v 0.000000 -0.248321 0.000000
v 0.427999 0.751679 -0.741315
v -0.427998 0.751679 -0.741315
v -0.855997 0.751679 -0.000000
v -0.427999 0.751679 0.741315
v 0.427998 0.751679 0.741315
v 0.855997 0.751679 -0.000000
v 0.496963 -0.206133 -0.860764
v -0.496962 -0.206133 -0.860764
v -0.993925 -0.206133 -0.000000
v -0.496962 -0.206133 0.860764
v 0.496962 -0.206133 0.860764
v 0.993925 -0.206133 -0.000000
v 1.247501 1.940193 -2.160733
v -1.247500 1.940193 -2.160733
v -2.495000 1.940193 -0.000000
v -1.247500 1.940193 2.160733
v 1.247500 1.940194 2.160733
v 2.495000 1.940194 -0.000000
v 0.704373 2.549820 -1.220006
v -0.704372 2.549820 -1.220006
v -1.408744 2.549820 -0.000000
v -0.704372 2.549820 1.220005
v 0.704372 2.549820 1.220005
v 1.408744 2.549820 -0.000000
v 0.336841 2.887226 -0.583423
v -0.336841 2.887226 -0.583423
v -0.000000 2.887226 -0.000000
v -0.673682 2.887226 -0.000000
v -0.336841 2.887226 0.583423
v 0.336841 2.887226 0.583423
v 0.673682 2.887226 -0.000000
v 0.498503 1.730884 -0.863432
v -0.498503 1.730884 -0.863432
v -0.997005 1.730884 -0.000000
v -0.498503 1.730884 0.863432
v 0.498503 1.730884 0.863432
v 0.997005 1.730884 -0.000000
v 0.521132 1.757008 -0.902626
v -0.521131 1.757008 -0.902626
v -1.042263 1.757008 -0.000000
v -0.521132 1.757008 0.902626
v 0.521131 1.757008 0.902626
v 1.042263 1.757008 -0.000000
vt 0.484812 0.744000
vt 0.394231 0.707996
vt 0.394789 0.706047
vt 0.485617 0.742138
vt 0.297262 0.678267
vt 0.297500 0.676247
vt 0.193418 0.669216
vt 0.193254 0.667187
vt 0.092328 0.686533
vt 0.091786 0.684574
vt 0.570722 0.788552
vt 0.000000 0.719683
vt 0.325749 0.903588
vt 0.411541 0.919898
vt 0.374716 1.000000
vt 0.262904 0.861246
vt 0.201800 0.846711
vt 0.139447 0.861993
vt 0.072276 0.910408
vt 0.345825 0.388662
vt 0.286700 0.387775
vt 0.317030 0.337014
vt 0.257905 0.336127
vt 0.288236 0.285367
vt 0.347361 0.286254
vt 0.376156 0.337901
vt 0.413000 0.916659
vt 0.327772 0.899099
vt 0.366360 0.802608
vt 0.446545 0.832533
vt 0.264536 0.857810
vt 0.285520 0.772186
vt 0.201890 0.842985
vt 0.199766 0.761253
vt 0.137825 0.858553
vt 0.115399 0.777507
vt 0.484354 0.966405
vt 0.039356 0.809688
vt 0.582692 0.544015
vt 0.056352 0.550252
vt 0.196142 0.552176
vt 0.442922 0.549289
vt 0.002023 0.217876
vt 0.070250 0.339902
vt 0.262705 0.004641
vt 0.191141 0.124739
vt 0.577711 0.123780
vt 0.437921 0.121853
vt 0.632038 0.456152
vt 0.563811 0.334128
vt 0.251252 0.450636
vt 0.382540 0.450791
vt 0.185742 0.336859
vt 0.251521 0.223237
vt 0.382810 0.223393
vt 0.448319 0.337170
vt 0.629130 0.210447
vt 0.000840 0.721530
vt 0.634062 0.459635
vt 0.069368 0.906201
vt 0.522962 0.871377
vt 0.481914 0.970485
vt 0.200508 0.938207
vt 0.631069 0.206916
vt 0.571768 0.786814
vt 0.586720 0.543929
vt 0.361382 0.000000
vt 0.047342 0.130099
vt 0.002993 0.467116
vt 0.272683 0.674029
vt 0.363471 0.003445
vt 0.051370 0.130012
vt 0.004932 0.463585
vt 0.270595 0.670584
vt 0.371360 0.669387
vt 0.581739 0.123769
vt 0.264710 0.001147
vt 0.000000 0.214393
vt 0.052324 0.550262
vt 0.369355 0.672881
vn 0.000000 -0.123752 -0.992313
vn 0.000000 -0.123752 -0.992313
vn 0.000000 -0.123753 -0.992313
vn 0.000000 -0.123753 -0.992313
vn -0.859368 -0.123752 -0.496157
vn -0.859369 -0.123752 -0.496157
vn -0.859370 -0.123749 -0.496155
vn -0.859370 -0.123749 -0.496155
vn -0.859369 -0.123752 0.496157
vn -0.859369 -0.123752 0.496156
vn -0.859368 -0.123754 0.496157
vn -0.859368 -0.123754 0.496157
vn 0.000000 -0.123752 0.992313
vn 0.000000 -0.123752 0.992313
vn 0.000000 -0.123755 0.992313
vn 0.000000 -0.123755 0.992313
vn 0.859369 -0.123752 0.496157
vn 0.859369 -0.123752 0.496157
vn 0.859369 -0.123753 0.496155
vn 0.859369 -0.123753 0.496156
vn 0.859369 -0.123752 -0.496156
vn 0.859369 -0.123752 -0.496156
vn 0.859368 -0.123752 -0.496157
vn 0.859368 -0.123752 -0.496157
vn 0.000000 -1.000000 0.000000
vn 0.000000 -1.000000 0.000000
vn 0.000000 -1.000000 0.000000
vn 0.000000 -1.000000 0.000000
vn 0.000000 -1.000000 -0.000000
vn 0.000000 -1.000000 -0.000000
vn 0.000000 -1.000000 0.000000
vn 0.000000 1.000000 -0.000000
vn 0.000000 1.000000 0.000000
vn 0.000000 1.000000 -0.000000
vn 0.000000 1.000000 0.000000
vn 0.000000 1.000000 0.000000
vn 0.000000 1.000000 -0.000000
vn 0.000000 1.000000 -0.000000
vn 0.000000 0.123752 -0.992313
vn 0.000000 0.123752 -0.992313
vn 0.000000 -0.001481 -0.999999
vn 0.000000 -0.001481 -0.999999
vn -0.859368 0.123752 -0.496157
vn -0.859369 0.123752 -0.496157
vn -0.866024 -0.001481 -0.500000
vn -0.866024 -0.001481 -0.500000
vn -0.859369 0.123752 0.496156
vn -0.859369 0.123752 0.496156
vn -0.866025 -0.001481 0.499999
vn -0.866025 -0.001481 0.499999
vn 0.000000 0.123752 0.992313
vn 0.000000 0.123752 0.992313
vn 0.000000 -0.001481 0.999999
vn 0.000000 -0.001481 0.999999
vn 0.859369 0.123752 0.496157
vn 0.859369 0.123752 0.496157
vn 0.866024 -0.001481 0.499999
vn 0.866024 -0.001481 0.499999
vn 0.859369 0.123752 -0.496157
vn 0.859369 0.123752 -0.496157
vn 0.866025 -0.001481 -0.499999
vn 0.866025 -0.001481 -0.499999
vn 0.000000 0.123753 -0.992313
vn 0.000000 0.123753 -0.992313
vn -0.859369 0.123753 -0.496156
vn -0.859369 0.123753 -0.496156
vn -0.859368 0.123754 0.496156
vn -0.859368 0.123755 0.496156
vn 0.000000 0.123753 0.992313
vn 0.000000 0.123753 0.992313
vn 0.859369 0.123753 0.496156
vn 0.859369 0.123753 0.496156
vn 0.859368 0.123752 -0.496157
vn 0.859368 0.123752 -0.496157
vn 0.062553 -0.992143 -0.108345
vn -0.062553 -0.992143 -0.108345
vn -0.062553 -0.992143 -0.108345
vn 0.062553 -0.992143 -0.108345
vn -0.125106 -0.992143 -0.000000
vn -0.125106 -0.992143 -0.000000
vn -0.062553 -0.992143 0.108345
vn -0.062553 -0.992143 0.108345
vn 0.062553 -0.992143 0.108345
vn 0.062553 -0.992143 0.108345
vn 0.125106 -0.992143 0.000000
vn 0.125106 -0.992143 0.000000
vn 0.000000 0.839196 -0.543830
vn 0.000000 0.839196 -0.543830
vn 0.000000 0.839196 -0.543830
vn 0.000000 0.839196 -0.543830
vn -0.470971 0.839195 -0.271915
vn -0.470971 0.839195 -0.271915
vn -0.470971 0.839195 -0.271915
vn -0.470971 0.839195 -0.271915
vn -0.470971 0.839195 0.271915
vn -0.470971 0.839195 0.271915
vn -0.470971 0.839195 0.271915
vn -0.470971 0.839195 0.271915
vn -0.000000 0.839196 0.543830
vn -0.000000 0.839196 0.543830
vn -0.000000 0.839196 0.543829
vn -0.000000 0.839196 0.543829
vn 0.470971 0.839195 0.271915
vn 0.470971 0.839195 0.271915
vn 0.470971 0.839195 0.271915
vn 0.470971 0.839195 0.271915
vn 0.470971 0.839195 -0.271915
vn 0.470971 0.839195 -0.271915
vn 0.470971 0.839195 -0.271915
vn 0.470971 0.839195 -0.271915
vn 0.000000 0.883563 -0.468313
vn 0.000000 0.883563 -0.468313
vn 0.000000 0.883563 -0.468313
vn 0.000000 0.883563 -0.468313
vn -0.405571 0.883563 -0.234157
vn -0.405571 0.883563 -0.234157
vn -0.405571 0.883563 -0.234157
vn -0.405571 0.883563 -0.234157
vn -0.405571 0.883563 0.234157
vn -0.405571 0.883563 0.234157
vn -0.405571 0.883563 0.234157
vn -0.405571 0.883563 0.234157
vn 0.000000 0.883562 0.468313
vn 0.000000 0.883562 0.468313
vn 0.000000 0.883562 0.468313
vn 0.000000 0.883562 0.468313
vn 0.405571 0.883563 0.234157
vn 0.405571 0.883563 0.234157
vn 0.405571 0.883563 0.234157
vn 0.405571 0.883563 0.234157
vn 0.405571 0.883563 -0.234157
vn 0.405571 0.883563 -0.234157
vn 0.405571 0.883563 -0.234157
vn 0.405571 0.883563 -0.234157
vn 0.062553 -0.992144 -0.108344
vn -0.062553 -0.992143 -0.108345
vn -0.125106 -0.992143 -0.000001
vn -0.062553 -0.992144 0.108344
vn 0.062553 -0.992143 0.108344
vn 0.125106 -0.992143 0.000000
s 1
g mushroom_geo
usemtl initialShadingGroup
f 45/1/1 46/2/2 8/3/3 7/4/4
s 2
f 46/2/5 47/5/6 9/6/7 8/3/8
s 3
f 47/5/9 48/7/10 10/8/11 9/6/12
s 4
f 48/7/13 49/9/14 11/10/15 10/8/16
s 5
f 49/9/17 50/58/18 12/12/19 11/10/20
s 6
f 50/11/21 45/1/22 7/4/23 12/65/24
s 7
f 2/13/25 1/14/26 13/15/27
f 3/16/28 2/13/25 13/63/27
f 4/17/29 3/16/28 13/63/27
f 5/18/30 4/17/29 13/63/27
f 6/19/31 5/18/30 13/63/27
f 1/14/26 6/62/31 13/15/27
s 8
f 38/20/32 39/21/33 40/22/34
f 39/21/33 41/23/35 40/22/34
f 41/23/35 42/24/36 40/22/34
f 42/24/36 43/25/37 40/22/34
f 43/25/37 44/26/38 40/22/34
f 44/26/38 38/20/32 40/22/34
s 1
f 20/27/39 21/28/40 15/29/41 14/30/42
s 2
f 21/28/43 22/31/44 16/32/45 15/29/46
s 3
f 22/31/47 23/33/48 17/34/49 16/32/50
s 4
f 23/33/51 24/35/52 18/36/53 17/34/54
s 5
f 24/35/55 25/60/56 19/38/57 18/36/58
s 6
f 25/37/59 20/27/60 14/30/61 19/61/62
s 1
f 1/14/63 2/13/64 21/28/40 20/27/39
s 2
f 2/13/65 3/16/66 22/31/44 21/28/43
s 3
f 3/16/67 4/17/68 23/33/48 22/31/47
s 4
f 4/17/69 5/18/70 24/35/52 23/33/51
s 5
f 5/18/71 6/19/72 25/60/56 24/35/55
s 6
f 6/62/73 1/14/74 20/27/60 25/37/59
s 15
f 51/75/75 52/74/76 27/41/77 26/42/78
f 52/40/76 53/73/79 28/44/80 27/41/77
f 53/43/79 54/72/81 29/46/82 28/44/80
f 54/45/81 55/71/83 30/48/84 29/46/82
f 55/47/83 56/57/85 31/50/86 30/48/84
f 56/49/85 51/39/75 26/42/78 31/50/86
s off
f 26/42/87 27/41/88 33/51/89 32/52/90
f 27/41/91 28/44/92 34/53/93 33/51/94
f 28/44/95 29/46/96 35/54/97 34/53/98
f 29/46/99 30/48/100 36/55/101 35/54/102
f 30/48/103 31/50/104 37/56/105 36/55/106
f 31/50/107 26/42/108 32/52/109 37/56/110
f 32/52/111 33/51/112 39/21/113 38/20/114
f 33/51/115 34/53/116 41/23/117 39/21/118
f 34/53/119 35/54/120 42/24/121 41/23/122
f 35/54/123 36/55/124 43/25/125 42/24/126
f 36/55/127 37/56/128 44/26/129 43/25/130
f 37/56/131 32/52/132 38/20/133 44/26/134
s 1
f 14/30/42 15/29/41 46/2/2 45/1/1
s 2
f 15/29/46 16/32/45 47/5/6 46/2/5
s 3
f 16/32/50 17/34/49 48/7/10 47/5/9
s 4
f 17/34/54 18/36/53 49/9/14 48/7/13
s 5
f 18/36/58 19/38/57 50/58/18 49/9/17
s 6
f 19/61/62 14/30/61 45/1/22 50/11/21
s 15
f 7/80/135 8/70/136 52/74/76 51/75/75
f 8/79/136 9/69/137 53/73/79 52/40/76
f 9/78/137 10/68/138 54/72/81 53/43/79
f 10/77/138 11/67/139 55/71/83 54/45/81
f 11/76/139 12/64/140 56/57/85 55/47/83
f 12/59/140 7/66/135 51/39/75 56/49/85
