# This file uses centimeters as units for non-parametric coordinates.

mtllib pan.mtl
g default
v 0.836675 -0.026537 0.044874
v 0.836675 -0.071411 0.063462
v 0.836675 -0.116285 0.044874
v 0.836675 -0.134873 0.000000
v 0.836675 -0.116285 -0.044874
v 0.836675 -0.071411 -0.063462
v 0.836675 -0.026537 -0.044874
v 0.836675 -0.007950 0.000000
v 2.177671 -0.026537 0.044874
v 2.177671 -0.071411 0.063462
v 2.177671 -0.116285 0.044874
v 2.177671 -0.134873 0.000000
v 2.177671 -0.116285 -0.044874
v 2.177671 -0.071411 -0.063462
v 2.177671 -0.026537 -0.044874
v 2.177671 -0.007950 0.000000
v 0.836675 -0.071411 0.000000
v 2.177671 -0.071411 0.000000
v 0.850435 -0.136717 -0.360988
v 0.346091 -0.136717 -0.856606
v -0.360988 -0.136717 -0.850435
v -0.856606 -0.136717 -0.346091
v -0.850435 -0.136717 0.360988
v -0.346091 -0.136717 0.856606
v 0.360988 -0.136717 0.850435
v 0.856606 -0.136717 0.346091
v 0.920505 0.000000 -0.390731
v 0.374607 0.000000 -0.927184
v -0.390731 0.000000 -0.920505
v -0.927184 0.000000 -0.374607
v -0.920505 0.000000 0.390731
v -0.374607 0.000000 0.927184
v 0.390731 0.000000 0.920505
v 0.927184 0.000000 0.374607
v 0.000000 -0.184637 0.000000
v 0.831968 0.000000 -0.353149
v 0.338576 0.000000 -0.838004
v -0.353149 0.000000 -0.831968
v -0.838004 0.000000 -0.338576
v -0.831968 0.000000 0.353149
v -0.338576 0.000000 0.838004
v 0.353149 0.000000 0.831968
v 0.838004 0.000000 0.338576
v 0.672926 -0.075697 -0.285640
v 0.273852 -0.075697 -0.677808
v -0.285640 -0.075697 -0.672926
v -0.677808 -0.075697 -0.273852
v -0.672926 -0.075697 0.285640
v -0.273852 -0.075697 0.677808
v 0.285640 -0.075697 0.672926
v 0.677808 -0.075697 0.273852
v 0.000000 -0.075697 0.000000
vt 0.610485 0.045765
vt 0.500000 0.000000
vt 0.389515 0.045765
vt 0.343750 0.156250
vt 0.389515 0.266735
vt 0.500000 0.312500
vt 0.610485 0.266735
vt 0.656250 0.156250
vt 0.375000 0.312500
vt 0.406250 0.312500
vt 0.437500 0.312500
vt 0.468750 0.312500
vt 0.500000 0.312500
vt 0.531250 0.312500
vt 0.562500 0.312500
vt 0.593750 0.312500
vt 0.625000 0.312500
vt 0.375000 0.688440
vt 0.406250 0.688440
vt 0.437500 0.688440
vt 0.468750 0.688440
vt 0.500000 0.688440
vt 0.531250 0.688440
vt 0.562500 0.688440
vt 0.593750 0.688440
vt 0.625000 0.688440
vt 0.610485 0.733265
vt 0.500000 0.687500
vt 0.389515 0.733265
vt 0.343750 0.843750
vt 0.389515 0.954235
vt 0.500000 1.000000
vt 0.610485 0.954235
vt 0.656250 0.843750
vt 0.500000 0.150000
vt 0.500000 0.837500
vt 0.125000 0.375000
vt 0.000000 0.375000
vt 0.062500 0.000000
vt 0.250000 0.375000
vt 0.187500 0.000000
vt 0.375000 0.375000
vt 0.312500 0.000000
vt 0.500000 0.375000
vt 0.437500 0.000000
vt 0.625000 0.375000
vt 0.562500 0.000000
vt 0.750000 0.375000
vt 0.687500 0.000000
vt 0.875000 0.375000
vt 0.812500 0.000000
vt 1.000000 0.375000
vt 0.937500 0.000000
vt 0.125000 0.500000
vt 0.000000 0.500000
vt 0.250000 0.500000
vt 0.375000 0.500000
vt 0.500000 0.500000
vt 0.625000 0.500000
vt 0.750000 0.500000
vt 0.875000 0.500000
vt 1.000000 0.500000
vt 0.000000 0.000000
vt 1.000000 0.000000
vt 1.000000 1.000000
vt 0.000000 1.000000
vt 0.000000 0.000000
vt 1.000000 0.000000
vt 1.000000 1.000000
vt 0.000000 1.000000
vt 0.000000 0.000000
vt 1.000000 0.000000
vt 1.000000 1.000000
vt 0.000000 1.000000
vt 0.000000 0.000000
vt 1.000000 0.000000
vt 1.000000 1.000000
vt 0.000000 1.000000
vt 0.000000 0.000000
vt 1.000000 0.000000
vt 1.000000 1.000000
vt 0.000000 1.000000
vt 0.000000 0.000000
vt 1.000000 0.000000
vt 1.000000 1.000000
vt 0.000000 1.000000
vt 0.000000 0.000000
vt 1.000000 0.000000
vt 1.000000 1.000000
vt 0.000000 1.000000
vt 0.000000 0.000000
vt 1.000000 0.000000
vt 1.000000 1.000000
vt 0.000000 1.000000
vt 0.000000 0.000000
vt 1.000000 0.000000
vt 1.000000 1.000000
vt 0.000000 1.000000
vt 0.000000 0.000000
vt 1.000000 0.000000
vt 1.000000 1.000000
vt 0.000000 1.000000
vt 0.000000 0.000000
vt 1.000000 0.000000
vt 1.000000 1.000000
vt 0.000000 1.000000
vt 0.000000 0.000000
vt 1.000000 0.000000
vt 1.000000 1.000000
vt 0.000000 1.000000
vt 0.000000 0.000000
vt 1.000000 0.000000
vt 1.000000 1.000000
vt 0.000000 1.000000
vt 0.000000 0.000000
vt 1.000000 0.000000
vt 1.000000 1.000000
vt 0.000000 1.000000
vt 0.000000 0.000000
vt 1.000000 0.000000
vt 1.000000 1.000000
vt 0.000000 1.000000
vt 0.000000 0.000000
vt 1.000000 0.000000
vt 1.000000 1.000000
vt 0.000000 1.000000
vt 0.000000 0.000000
vt 1.000000 0.000000
vt 0.500000 1.000000
vt 0.000000 0.000000
vt 1.000000 0.000000
vt 0.500000 1.000000
vt 0.000000 0.000000
vt 1.000000 0.000000
vt 0.500000 1.000000
vt 0.000000 0.000000
vt 1.000000 0.000000
vt 0.500000 1.000000
vt 0.000000 0.000000
vt 1.000000 0.000000
vt 0.500000 1.000000
vt 0.000000 0.000000
vt 1.000000 0.000000
vt 0.500000 1.000000
vt 0.000000 0.000000
vt 1.000000 0.000000
vt 0.500000 1.000000
vt 0.000000 0.000000
vt 1.000000 0.000000
vt 0.500000 1.000000
vn 0.000000 0.382683 0.923880
vn 0.000000 0.382683 0.923880
vn 0.000000 0.382683 0.923880
vn 0.000000 0.382683 0.923880
vn 0.000000 -0.382683 0.923880
vn 0.000000 -0.382683 0.923880
vn 0.000000 -0.382683 0.923880
vn 0.000000 -0.382683 0.923880
vn 0.000000 -0.923880 0.382683
vn 0.000000 -0.923880 0.382683
vn 0.000000 -0.923880 0.382683
vn 0.000000 -0.923880 0.382683
vn 0.000000 -0.923880 -0.382683
vn 0.000000 -0.923880 -0.382683
vn 0.000000 -0.923880 -0.382683
vn 0.000000 -0.923880 -0.382683
vn 0.000000 -0.382683 -0.923880
vn 0.000000 -0.382683 -0.923880
vn 0.000000 -0.382683 -0.923880
vn 0.000000 -0.382683 -0.923880
vn 0.000000 0.382683 -0.923880
vn 0.000000 0.382683 -0.923880
vn 0.000000 0.382683 -0.923880
vn 0.000000 0.382683 -0.923880
vn 0.000000 0.923880 -0.382683
vn 0.000000 0.923880 -0.382683
vn 0.000000 0.923880 -0.382683
vn 0.000000 0.923880 -0.382683
vn 0.000000 0.923880 0.382684
vn 0.000000 0.923880 0.382684
vn 0.000000 0.923880 0.382684
vn 0.000000 0.923880 0.382684
vn -1.000000 0.000000 0.000000
vn -1.000000 0.000000 0.000000
vn -1.000000 0.000000 0.000000
vn -1.000000 0.000000 0.000000
vn -1.000000 0.000000 0.000000
vn -1.000000 0.000000 0.000000
vn -1.000000 0.000000 0.000000
vn -1.000000 0.000000 0.000000
vn -1.000000 0.000000 0.000000
vn 1.000000 0.000000 0.000000
vn 1.000000 0.000000 0.000000
vn 1.000000 0.000000 0.000000
vn 1.000000 0.000000 0.000000
vn 1.000000 0.000000 0.000000
vn 1.000000 0.000000 0.000000
vn 1.000000 0.000000 0.000000
vn 1.000000 0.000000 0.000000
vn 1.000000 0.000000 0.000000
vn 0.039289 -0.998428 -0.039980
vn 0.039289 -0.998428 -0.039980
vn 0.039289 -0.998428 -0.039980
vn -0.000489 -0.998428 -0.056052
vn -0.000489 -0.998428 -0.056052
vn -0.000489 -0.998428 -0.056052
vn -0.039980 -0.998428 -0.039289
vn -0.039980 -0.998428 -0.039289
vn -0.039980 -0.998428 -0.039289
vn -0.056052 -0.998428 0.000489
vn -0.056052 -0.998428 0.000489
vn -0.056052 -0.998428 0.000489
vn -0.039289 -0.998428 0.039980
vn -0.039289 -0.998428 0.039980
vn -0.039289 -0.998428 0.039980
vn 0.000489 -0.998428 0.056052
vn 0.000489 -0.998428 0.056052
vn 0.000489 -0.998428 0.056052
vn 0.039980 -0.998428 0.039289
vn 0.039980 -0.998428 0.039289
vn 0.039980 -0.998428 0.039289
vn 0.056052 -0.998428 -0.000489
vn 0.056052 -0.998428 -0.000489
vn 0.056052 -0.998428 -0.000489
vn 0.623283 -0.457424 -0.634257
vn 0.623283 -0.457424 -0.634257
vn 0.623283 -0.457424 -0.634257
vn 0.623283 -0.457424 -0.634257
vn -0.007760 -0.457424 -0.889215
vn -0.007760 -0.457424 -0.889215
vn -0.007760 -0.457424 -0.889215
vn -0.007760 -0.457424 -0.889215
vn -0.634257 -0.457424 -0.623283
vn -0.634257 -0.457424 -0.623283
vn -0.634257 -0.457424 -0.623283
vn -0.634257 -0.457424 -0.623283
vn -0.889215 -0.457424 0.007760
vn -0.889215 -0.457424 0.007760
vn -0.889215 -0.457424 0.007760
vn -0.889215 -0.457424 0.007760
vn -0.623283 -0.457424 0.634257
vn -0.623283 -0.457424 0.634257
vn -0.623283 -0.457424 0.634257
vn -0.623283 -0.457424 0.634257
vn 0.007760 -0.457424 0.889215
vn 0.007760 -0.457424 0.889215
vn 0.007760 -0.457424 0.889215
vn 0.007760 -0.457424 0.889215
vn 0.634257 -0.457424 0.623283
vn 0.634257 -0.457424 0.623283
vn 0.634257 -0.457424 0.623283
vn 0.634257 -0.457424 0.623283
vn 0.889215 -0.457424 -0.007760
vn 0.889215 -0.457424 -0.007760
vn 0.889215 -0.457424 -0.007760
vn 0.889215 -0.457424 -0.007760
vn 0.000000 1.000000 0.000000
vn 0.000000 1.000000 0.000000
vn 0.000000 1.000000 0.000000
vn 0.000000 1.000000 0.000000
vn 0.000000 1.000000 0.000000
vn 0.000000 1.000000 0.000000
vn 0.000000 1.000000 0.000000
vn 0.000000 1.000000 0.000000
vn 0.000000 1.000000 0.000000
vn 0.000000 1.000000 0.000000
vn 0.000000 1.000000 0.000000
vn 0.000000 1.000000 0.000000
vn 0.000000 1.000000 0.000000
vn 0.000000 1.000000 0.000000
vn 0.000000 1.000000 0.000000
vn 0.000000 1.000000 0.000000
vn 0.000000 1.000000 0.000000
vn 0.000000 1.000000 0.000000
vn 0.000000 1.000000 0.000000
vn 0.000000 1.000000 0.000000
vn 0.000000 1.000000 0.000000
vn 0.000000 1.000000 0.000000
vn 0.000000 1.000000 0.000000
vn 0.000000 1.000000 0.000000
vn 0.000000 1.000000 0.000000
vn 0.000000 1.000000 0.000000
vn 0.000000 1.000000 0.000000
vn 0.000000 1.000000 0.000000
vn 0.000000 1.000000 0.000000
vn 0.000000 1.000000 0.000000
vn 0.000000 1.000000 0.000000
vn 0.000000 1.000000 0.000000
vn -0.300326 0.903551 0.305614
vn -0.300326 0.903551 0.305614
vn -0.300326 0.903551 0.305614
vn -0.300326 0.903551 0.305614
vn 0.003739 0.903551 0.428465
vn 0.003739 0.903551 0.428465
vn 0.003739 0.903551 0.428465
vn 0.003739 0.903551 0.428465
vn 0.305614 0.903551 0.300326
vn 0.305614 0.903551 0.300326
vn 0.305614 0.903551 0.300326
vn 0.305614 0.903551 0.300326
vn 0.428464 0.903551 -0.003739
vn 0.428464 0.903551 -0.003739
vn 0.428464 0.903551 -0.003739
vn 0.428464 0.903551 -0.003739
vn 0.300326 0.903551 -0.305614
vn 0.300326 0.903551 -0.305614
vn 0.300326 0.903551 -0.305614
vn 0.300326 0.903551 -0.305614
vn -0.003739 0.903551 -0.428465
vn -0.003739 0.903551 -0.428465
vn -0.003739 0.903551 -0.428465
vn -0.003739 0.903551 -0.428465
vn -0.305614 0.903551 -0.300326
vn -0.305614 0.903551 -0.300326
vn -0.305614 0.903551 -0.300326
vn -0.305614 0.903551 -0.300326
vn -0.428465 0.903551 0.003739
vn -0.428465 0.903551 0.003739
vn -0.428465 0.903551 0.003739
vn -0.428465 0.903551 0.003739
vn -0.000000 1.000000 0.000000
vn -0.000000 1.000000 0.000000
vn -0.000000 1.000000 0.000000
vn 0.000000 1.000000 0.000000
vn 0.000000 1.000000 0.000000
vn 0.000000 1.000000 0.000000
vn 0.000000 1.000000 0.000000
vn 0.000000 1.000000 0.000000
vn 0.000000 1.000000 0.000000
vn 0.000000 1.000000 0.000000
vn 0.000000 1.000000 0.000000
vn 0.000000 1.000000 0.000000
vn 0.000000 1.000000 -0.000000
vn 0.000000 1.000000 -0.000000
vn 0.000000 1.000000 -0.000000
vn -0.000000 1.000000 -0.000000
vn -0.000000 1.000000 -0.000000
vn -0.000000 1.000000 -0.000000
vn -0.000000 1.000000 -0.000000
vn -0.000000 1.000000 -0.000000
vn -0.000000 1.000000 -0.000000
vn -0.000000 1.000000 0.000000
vn -0.000000 1.000000 0.000000
vn -0.000000 1.000000 0.000000
s off
g pCylinder2
usemtl initialShadingGroup
f 1/9/1 2/10/2 10/19/3 9/18/4
f 2/10/5 3/11/6 11/20/7 10/19/8
f 3/11/9 4/12/10 12/21/11 11/20/12
f 4/12/13 5/13/14 13/22/15 12/21/16
f 5/13/17 6/14/18 14/23/19 13/22/20
f 6/14/21 7/15/22 15/24/23 14/23/24
f 7/15/25 8/16/26 16/25/27 15/24/28
f 8/16/29 1/17/30 9/26/31 16/25/32
s 1
f 2/2/33 1/1/34 17/35/35
f 3/3/36 2/2/33 17/35/35
f 4/4/37 3/3/36 17/35/35
f 5/5/38 4/4/37 17/35/35
f 6/6/39 5/5/38 17/35/35
f 7/7/40 6/6/39 17/35/35
f 8/8/41 7/7/40 17/35/35
f 1/1/34 8/8/41 17/35/35
s 2
f 9/33/42 10/32/43 18/36/44
f 10/32/43 11/31/45 18/36/44
f 11/31/45 12/30/46 18/36/44
f 12/30/46 13/29/47 18/36/44
f 13/29/47 14/28/48 18/36/44
f 14/28/48 15/27/49 18/36/44
f 15/27/49 16/34/50 18/36/44
f 16/34/50 9/33/42 18/36/44
s off
f 20/37/51 19/38/52 35/39/53
f 21/40/54 20/37/55 35/41/56
f 22/42/57 21/40/58 35/43/59
f 23/44/60 22/42/61 35/45/62
f 24/46/63 23/44/64 35/47/65
f 25/48/66 24/46/67 35/49/68
f 26/50/69 25/48/70 35/51/71
f 19/52/72 26/50/73 35/53/74
f 19/38/75 20/37/76 28/54/77 27/55/78
f 20/37/79 21/40/80 29/56/81 28/54/82
f 21/40/83 22/42/84 30/57/85 29/56/86
f 22/42/87 23/44/88 31/58/89 30/57/90
f 23/44/91 24/46/92 32/59/93 31/58/94
f 24/46/95 25/48/96 33/60/97 32/59/98
f 25/48/99 26/50/100 34/61/101 33/60/102
f 26/50/103 19/52/104 27/62/105 34/61/106
f 27/63/107 28/64/108 37/65/109 36/66/110
f 28/67/111 29/68/112 38/69/113 37/70/114
f 29/71/115 30/72/116 39/73/117 38/74/118
f 30/75/119 31/76/120 40/77/121 39/78/122
f 31/79/123 32/80/124 41/81/125 40/82/126
f 32/83/127 33/84/128 42/85/129 41/86/130
f 33/87/131 34/88/132 43/89/133 42/90/134
f 34/91/135 27/92/136 36/93/137 43/94/138
f 36/95/139 37/96/140 45/97/141 44/98/142
f 37/99/143 38/100/144 46/101/145 45/102/146
f 38/103/147 39/104/148 47/105/149 46/106/150
f 39/107/151 40/108/152 48/109/153 47/110/154
f 40/111/155 41/112/156 49/113/157 48/114/158
f 41/115/159 42/116/160 50/117/161 49/118/162
f 42/119/163 43/120/164 51/121/165 50/122/166
f 43/123/167 36/124/168 44/125/169 51/126/170
f 44/127/171 45/128/172 52/129/173
f 45/130/174 46/131/175 52/132/176
f 46/133/177 47/134/178 52/135/179
f 47/136/180 48/137/181 52/138/182
f 48/139/183 49/140/184 52/141/185
f 49/142/186 50/143/187 52/144/188
f 50/145/189 51/146/190 52/147/191
f 51/148/192 44/149/193 52/150/194
