# This file uses centimeters as units for non-parametric coordinates.

mtllib pan.mtl
g default
v -0.500000 -0.148927 0.500000
v 0.500000 -0.148927 0.500000
v -0.668383 0.148927 0.668383
v 0.668383 0.148927 0.668383
v -0.668383 0.148927 -0.668383
v 0.668383 0.148927 -0.668383
v -0.500000 -0.148927 -0.500000
v 0.500000 -0.148927 -0.500000
v -0.416638 0.040190 0.416638
v 0.416638 0.040190 0.416638
v 0.416638 0.040190 -0.416638
v -0.416638 0.229391 -0.416638
vt 0.375000 0.000000
vt 0.625000 0.000000
vt 0.375000 0.250000
vt 0.625000 0.250000
vt 0.375000 0.500000
vt 0.625000 0.500000
vt 0.375000 0.750000
vt 0.625000 0.750000
vt 0.375000 1.000000
vt 0.625000 1.000000
vt 0.875000 0.000000
vt 0.875000 0.250000
vt 0.125000 0.000000
vt 0.125000 0.250000
vt 0.375000 0.250000
vt 0.625000 0.250000
vt 0.625000 0.500000
vt 0.375000 0.500000
vn 0.000000 -0.492127 0.870523
vn 0.000000 -0.492127 0.870523
vn 0.000000 -0.492127 0.870523
vn 0.000000 -0.492127 0.870523
vn 0.112093 0.987355 0.112093
vn 0.112093 0.987355 0.112093
vn 0.112093 0.987355 0.112093
vn 0.112093 0.987355 0.112093
vn 0.000000 -0.492127 -0.870523
vn 0.000000 -0.492127 -0.870523
vn 0.000000 -0.492127 -0.870523
vn 0.000000 -0.492127 -0.870523
vn 0.000000 -1.000000 0.000000
vn 0.000000 -1.000000 0.000000
vn 0.000000 -1.000000 0.000000
vn 0.000000 -1.000000 0.000000
vn 0.870523 -0.492127 0.000000
vn 0.870523 -0.492127 0.000000
vn 0.870523 -0.492127 0.000000
vn 0.870523 -0.492127 0.000000
vn -0.870523 -0.492127 0.000000
vn -0.870523 -0.492127 0.000000
vn -0.870523 -0.492127 0.000000
vn -0.870523 -0.492127 0.000000
vn 0.000000 0.918024 -0.396524
vn 0.000000 0.918024 -0.396524
vn 0.000000 0.918024 -0.396524
vn 0.000000 0.918024 -0.396524
vn -0.396524 0.918024 0.000000
vn -0.396524 0.918024 0.000000
vn -0.396524 0.918024 0.000000
vn -0.396524 0.918024 0.000000
vn 0.086723 0.994666 0.055854
vn 0.086723 0.994666 0.055854
vn 0.086723 0.994666 0.055854
vn 0.086723 0.994666 0.055854
vn 0.055854 0.994666 0.086723
vn 0.055854 0.994666 0.086723
vn 0.055854 0.994666 0.086723
vn 0.055854 0.994666 0.086723
s off
g pCube1
usemtl initialShadingGroup
f 1/1/1 2/2/2 4/4/3 3/3/4
f 9/15/5 10/16/6 11/17/7 12/18/8
f 5/5/9 6/6/10 8/8/11 7/7/12
f 7/7/13 8/8/14 2/10/15 1/9/16
f 2/2/17 8/11/18 6/12/19 4/4/20
f 7/13/21 1/1/22 3/3/23 5/14/24
f 3/3/25 4/4/26 10/16/27 9/15/28
f 4/4/29 6/6/30 11/17/31 10/16/32
f 6/6/33 5/5/34 12/18/35 11/17/36
f 5/5/37 3/3/38 9/15/39 12/18/40
