# This file uses centimeters as units for non-parametric coordinates.

mtllib potBase.mtl
g default
v 0.309017 0.000000 -0.951057
v -0.809017 0.000000 -0.587785
v -0.809017 0.000000 0.587785
v 0.309017 0.000000 0.951057
v 1.000000 0.000000 0.000000
v 0.000000 0.000000 0.000000
v 0.287801 0.747172 -0.856557
v -0.719143 0.747172 -0.529382
v 0.009488 0.747172 -0.000000
v -0.719143 0.747172 0.529381
v 0.287801 0.747172 0.856557
v 0.910126 0.747172 -0.000000
vt 0.548284 0.007647
vt 0.373591 0.064409
vt 0.373591 0.248091
vt 0.548284 0.304853
vt 0.656250 0.156250
vt 0.500000 0.150000
vt 0.500000 0.837500
vt 0.548284 0.992353
vt 0.373591 0.935591
vt 0.373591 0.751909
vt 0.548284 0.695147
vt 0.656250 0.843750
vn 0.000000 -1.000000 0.000000
vn 0.000000 -1.000000 0.000000
vn 0.000000 -1.000000 0.000000
vn 0.000000 -1.000000 0.000000
vn 0.000000 -1.000000 0.000000
vn 0.000000 -1.000000 0.000000
vn 0.000000 1.000000 -0.000000
vn 0.000000 1.000000 0.000000
vn 0.000000 1.000000 -0.000000
vn 0.000000 1.000000 0.000000
vn 0.000000 1.000000 0.000000
vn 0.000000 1.000000 -0.000000
s 1
g polySurface2 pCylinder1
usemtl initialShadingGroup
f 2/2/1 1/1/2 6/6/3
f 3/3/4 2/2/1 6/6/3
f 4/4/5 3/3/4 6/6/3
f 5/5/6 4/4/5 6/6/3
f 1/1/2 5/5/6 6/6/3
s 2
f 7/8/7 8/9/8 9/7/9
f 8/9/8 10/10/10 9/7/9
f 10/10/10 11/11/11 9/7/9
f 11/11/11 12/12/12 9/7/9
f 12/12/12 7/8/7 9/7/9
