# This file uses centimeters as units for non-parametric coordinates.

mtllib potContainer.mtl
g default
v 0.309017 2.000000 -0.951057
v -0.809017 2.000000 -0.587785
v -0.809017 2.000000 0.587785
v 0.309017 2.000000 0.951057
v 1.000000 2.000000 -0.000000
v 0.287801 2.000000 -0.856557
v -0.719143 2.000000 -0.529382
v -0.719143 2.000000 0.529381
v 0.287801 2.000000 0.856557
v 0.910126 2.000000 -0.000000
v 0.309017 0.000000 -0.951057
v -0.809017 0.000000 -0.587785
v -0.809017 0.000000 0.587785
v 0.309017 0.000000 0.951057
v 1.000000 0.000000 -0.000000
v -0.719143 0.747172 -0.529382
v 0.287801 0.747172 -0.856557
v -0.719143 0.747172 0.529381
v 0.287801 0.747172 0.856557
v 0.910126 0.747172 -0.000000
vt 0.375000 0.312500
vt 0.425000 0.312500
vt 0.425000 0.688440
vt 0.375000 0.688440
vt 0.475000 0.312500
vt 0.475000 0.688440
vt 0.525000 0.312500
vt 0.525000 0.688440
vt 0.575000 0.312500
vt 0.575000 0.688440
vt 0.625000 0.312500
vt 0.625000 0.688440
vt 0.548284 0.992353
vt 0.373591 0.935591
vt 0.373591 0.935591
vt 0.548284 0.992353
vt 0.373591 0.751909
vt 0.373591 0.751909
vt 0.548284 0.695147
vt 0.548284 0.695147
vt 0.656250 0.843750
vt 0.656250 0.843750
vt 0.373591 0.935591
vt 0.548284 0.992353
vt 0.373591 0.751909
vt 0.548284 0.695147
vt 0.656250 0.843750
vn -0.309017 0.000000 -0.951057
vn -0.309017 0.000000 -0.951057
vn -0.309017 0.000000 -0.951057
vn -0.309017 0.000000 -0.951057
vn -1.000000 0.000000 -0.000000
vn -1.000000 0.000000 -0.000000
vn -1.000000 0.000000 -0.000000
vn -1.000000 0.000000 -0.000000
vn -0.309017 0.000000 0.951057
vn -0.309017 0.000000 0.951057
vn -0.309017 0.000000 0.951057
vn -0.309017 0.000000 0.951057
vn 0.809017 0.000000 0.587785
vn 0.809017 0.000000 0.587785
vn 0.809017 0.000000 0.587785
vn 0.809017 0.000000 0.587785
vn 0.809017 0.000000 -0.587785
vn 0.809017 0.000000 -0.587785
vn 0.809017 0.000000 -0.587785
vn 0.809017 0.000000 -0.587785
vn 0.000000 1.000000 -0.000000
vn 0.000000 1.000000 -0.000000
vn 0.000000 1.000000 -0.000000
vn 0.000000 1.000000 -0.000000
vn 0.000000 1.000000 0.000000
vn 0.000000 1.000000 0.000000
vn 0.000000 1.000000 0.000000
vn 0.000000 1.000000 0.000000
vn 0.000000 1.000000 0.000000
vn 0.000000 1.000000 0.000000
vn 0.000000 1.000000 0.000000
vn 0.000000 1.000000 0.000000
vn 0.000000 1.000000 -0.000000
vn 0.000000 1.000000 -0.000000
vn 0.000000 1.000000 -0.000000
vn 0.000000 1.000000 -0.000000
vn 0.000000 1.000000 0.000000
vn 0.000000 1.000000 0.000000
vn 0.000000 1.000000 0.000000
vn 0.000000 1.000000 0.000000
vn 0.309017 0.000000 0.951057
vn 0.309017 0.000000 0.951057
vn 0.309017 0.000000 0.951057
vn 0.309017 0.000000 0.951057
vn 1.000000 0.000000 0.000000
vn 1.000000 0.000000 0.000000
vn 1.000000 0.000000 0.000000
vn 1.000000 0.000000 0.000000
vn 0.309017 0.000000 -0.951057
vn 0.309017 0.000000 -0.951057
vn 0.309017 0.000000 -0.951057
vn 0.309017 0.000000 -0.951057
vn -0.809017 0.000000 -0.587785
vn -0.809017 0.000000 -0.587785
vn -0.809017 0.000000 -0.587785
vn -0.809017 0.000000 -0.587785
vn -0.809017 0.000000 0.587785
vn -0.809017 0.000000 0.587785
vn -0.809017 0.000000 0.587785
vn -0.809017 0.000000 0.587785
s off
g polySurface1 pCylinder1
usemtl initialShadingGroup
f 11/1/1 12/2/2 2/3/3 1/4/4
f 12/2/5 13/5/6 3/6/7 2/3/8
f 13/5/9 14/7/10 4/8/11 3/6/12
f 14/7/13 15/9/14 5/10/15 4/8/16
f 15/9/17 11/11/18 1/12/19 5/10/20
f 1/13/21 2/14/22 7/15/23 6/16/24
f 2/14/25 3/17/26 8/18/27 7/15/28
f 3/17/29 4/19/30 9/20/31 8/18/32
f 4/19/33 5/21/34 10/22/35 9/20/36
f 5/21/37 1/13/38 6/16/39 10/22/40
f 6/16/41 7/15/42 16/23/43 17/24/44
f 7/15/45 8/18/46 18/25/47 16/23/48
f 8/18/49 9/20/50 19/26/51 18/25/52
f 9/20/53 10/22/54 20/27/55 19/26/56
f 10/22/57 6/16/58 17/24/59 20/27/60
